/* XPM */
static char *_ebe7b6003334e3aedaa5e5ebab334b7gXJJLdSJ7M5ZG5VK[] = {
/* columns rows colors chars-per-pixel */
"64 64 33 1 ",
"  c None",
". c #40404A",
"X c #3C3C46",
"o c #393942",
"O c #634C32",
"+ c #674E35",
"@ c #58422A",
"# c #302416",
"$ c #60492F",
"% c #5C462D",
"& c #4B3822",
"* c #543F27",
"= c #37281A",
"- c #43434E",
"; c #2F2F36",
": c #4F3C25",
"> c #3C2C1C",
", c #483521",
"< c #34333B",
"1 c #53525F",
"2 c #402F1E",
"3 c #4A4A56",
"4 c #292930",
"5 c #36363F",
"6 c #474752",
"7 c #443220",
"8 c #4E4E5A",
"9 c #302316",
"0 c #595966",
"q c #453D3C",
"w c #4F4849",
"e c #453728",
"r c #474249",
/* pixels */
" #    ##    #  #    ##    #  #    ##    #  #    ##   ##  #    ##",
">9>272>>=:,7=>29>2,2=>>&,2=>29=2,>=>>&,2=>29=27>==>&,2=>29=772=>",
",==27,2>=&77=>&==2,,2>=&77=>&==2,7>>=&77=>&==7,7>>=&77=>&==7,,>>",
"&>>&7&7>=&>>9>&>>&7&7>>&>>9=&>>,7,7>>&>>9>&>>&7&2>>&>>9>&>>&7&2>",
",22&>,27>&2=97,22&>,272&2=92,22&>7272&2=9>,22&>,>72&2=97,22&>&>7",
"7>>2>7>7>9229,72>7>,>,2922977>>7>7>,>922977>>2>,>,>=2>9&7>>2>,>,",
"2>=92297>9222&7>=9>2=,>9222&7>=9>>=,>9222&7>=9>2=,>9222&2>=9>2=,",
"7>=9&297297==&7>=9,>97297==,7>==,>97297=>&7>==,>97>97=>&7>==7>9&",
"&22=,>9>2>,7=2&2>=,>9>2>,7=2&2>=,>9>2>,2=7&2>=,>9>2>&2=7&2>>7>92",
"&7>=2>9=72,&=>&7>=2=9=72,&=>&7>=2=9=72,,=2&7>=2>9=72&,=7&7>=>>9=",
"=279==>9,22,=2>229===9,27,=7>729===9,27,=,>729=>==&2,,9,>729=>=9",
"4;qww.<qwwq%*%@%$@@@%@$*:%*%@%%@@@%@$*:%*$@%%@@%%@$*eq.w;<qwwq<q",
".510035o36w+++$$+++++++$%+++$$+++++++%%++O$O+++++++$q-01Xo00165X",
"Xo13865<o.qOOO$$%@@@%%$%*OOO$$%@@@%$$%@OOO%%%@%@%$$%e618X.188.55",
"XX-..X613o<*:*@*,,:&&,,&&*:*@:,,:&&,,&&*:@@:,,:&&,,&e5..X.--.X31",
"18Xo56001-q+OO++$%+++O$$O+$O++$%+++O$$O+O+++$%+++O$$qo.803Xoo100",
"83.55.11-.w$O+$O%@O+++O$$$OO$O%@O+++O$$$OO$O%@O+++O$w33086X<o601",
"83.o-36-.Xw&:@@*&&:****:&,:@@*&&:****:&,:@@*&&:****&w3X.86XX636-",
"-.o6116oX5q*@%%@@@*@%%$@:*@%%@@@@@%%$@:@%@%@@@@%%%$*q.33.XX818.o",
"..o.3.X5-6q+++++O$$OOO$%%+++++OOOOOOO%$+++++OOOOOOO%q608..X33XXo",
".o55Xo5<801O$$%@@@%$$@@%%O$$%@@@%$%@@%%O$$%@@@%$%@@%q-6..o5oXo<o",
"oo303o<.00w,&*@:77&**:,,,,&*@:77&*:&,,,,&@@&77&*:&,,q..X5X11-5<6",
"-X0136o.--w$$+O$$%O+$OOOO$$+O$%%O+$OOOO$$+O$%%++$+OOq308X-033.o.",
"6X6--6XXXXq$O+O%%@O+OO$$$$O+$%%%O+$O$$O$O+$$%%++OO$$w016-X6.6-X.",
"..oo.Xo81.q:::*@**%*:&&&&:::*@*@%*:&&&::::*@*@%*:&&&q8-X.X5X.o-0",
"o5X816X301w@%%%$OO$%%%%*:@%%%$OO$%%%%*:@%%%$OO$%%%%*eX365o-18-.1",
"-58008o566w+++$$+++++++$%+++$$+++++++%$+++$O+++++++%q608X.0016<X",
".58386o5o.q$OO$$%@@@@%$%*$OO$$@@@@%%$%@OOO$$@@@@%%$@e388o-138X55",
".X-..X-13X<*:*@*,,:&&,,&&*:*@*,,:&&,,&:*:@@:,&:&&,,&e5..X.-.X.31",
"11XX56001-q+OOO+$@O++OO$O+OOO+$%O++O$$O+$OO+%%+++O$$wX-11-XoX100",
"13.5<.106Xw$O+$$%@O+++O$$$OO$O%@O+++O$$$OO$$%%O+++O$136186X<X608",
"83.o-36-.ow&:@@*&,:*@**:&&:@@*&&:****:&&*@@*&&:****:w3X-86XX33-.",
"-.o6086oo<q%$$%%%%%$$OO%*%$$%%%%%$$OO%@%$$%%%%%$$OO@qX88.oX113.5",
"..o.3-X5.3q+++++O$$OOO$%%+++++O$$O$O$%$+++++O$$O$O$%q303..o66Xo5",
".XoXXo5<801$%$%@**@%%@*@@$%$%@**@%%@*@@$%$%@**@%%**@q--XXooXX5<X",
"oo308X<X11w,&@%*,,&@*:&&&,&@@:,,:@::&&&,:@@:,,:@::&&q.-X5-01-558",
"6o1133oX..wO$++OO%++OO+++OO++O$%++$++++$O++O$$++$+++q301X6038.o.",
"-X..-6X.-Xq$$OO$%@O+$$%%$$$OO$%%O+$$%%$$$OO%%%++$$%%w08-.X--6.X-",
"X.oo.oo10-o&:&&:**@:&,,,,&:&&**@@::&,,,::::**@@::&,,q3.o.Xo.Xo60",
"X5X316.601w@%%%%OO$%%%%@:@%%%$OOOOOO$@*$$$$O+OOOOO$*qX835o308-X1",
"6o1008X<--w+++%$O+++O++$%+++%$++++O++%$++O%$+++OO++%q308o-001.;X",
".58336ooXXq%%$%%@****@@@*%%$%%****@@%@*$%$%%****@@%*<6865-363ooo",
"--...X611.<@**%@&&*::&,&:@:@%*&&*::&&&*@:@%*&:*::&&&<5..-...X-11",
"11XX<-001-q++O++O%++++O$++OOO+$%O+++OOO+O+O+%%++++OOw.311-o5.101",
"18-o<X31-X8$$O$$%@O+OO$%%%OO$$%@O+OO$%%%OO$$@%O+OO$%16-186X<X616",
"63.o-13..o-&&*@*&,&:***:,,:*@*&,:****:,,:*@:,&:****&w6X-3-o-83..",
"-.o-186Xo5q$OOO$OOOOOO+$@OOO$$OOOOO+O%%O+O$$OOOOO+O@q.03Xo.186X5",
"..Xo6.o5-1w+++++O%%$$$%%%+++++O%%O$$%%$+++OO$%$O$$%%q816.X5.-o5X",
"XXo..o5<101@@%@*::*@@*:*:@@%@*::*%@*:**@@%@:::@%@:::q..XXoX.o5<-",
"X5301.<X11w::@$@:&*@**:::::%%*&&*%**:::&*%%*&&*%**::q-6.5601-5o8",
"3o8163XX..wOO++OO%++O++++OO+O$O%++O++++O++O$$%++O+++q103X31-3.oX",
"-.X.--X-6Xq%%$$$%@OO$%%%%$%$$$%@OO%%@%%%%$$%@%O$%@@@w03.-X..-X.3",
"X.oo-XX803Xe&:e&:@%:eeeeee:ee&:@@eeeeeee:e7&*@*eeee7q-XoXXo.XX80",
"-<X108.X116o-1X;X103oX88.o88o<-0165X86XX83<<301-5-86X.16<X108.o8",
"653113o;o.XX11-<81865;X.X.18.5118-<;X.o313XX013.;<..o81656083o;5",
"X<---.5ooo<<--X<-.-.5ooo;5--o56.-o5ooo;X--<o-..5X.o<;X-X<..-X5XX",
"..oo55688X;;<o--oo<o383o;;<X--oo<.38654;5X6.oo<-38-<4;5.-Xo55688",
"3-5<;o686oX.o63-5;;X38-o..X66.<;;.83.o.oX36X<;<-83Xo-o-3-o;4o68-",
"-.o;;5X-o;-6oo-.o;;5..5<3-5o-Xo;;5-X<53.<X-X<;<o-X;X3X<..o;;<X.o",
"5o<;X6X;<;5o55oo;;.6o;<;oo55o5;5--5;;;o55oo<;o-.<;;;o5ooo<;X-X;;",
"5;;<.o<;;;;;X-5;;5.o<;;;4;.-<;;o.5<4;;4<-.;;;XX<;4;;4o6o;;<.o<;4",
"<;44;;44;.o<X5;;44;;445.<<X5;;44;444XX<5X<;444;444.X<5o<;44;;44<",
"44;<<4445-X<4;44;5<444X-o;;444;5;44;-.5;;44;<5444<-X<;;44;5<4445",
";4<.o<445<;;<o;4o.5;4;5<;;5544XX544;5<;;o<4;.X544<<;;<X;45.o<44<"
};
