/* XPM */
static char *_8c5372ab7164213e7931824f7f8a6d2x77KxmECfVyJMsET[] = {
/* columns rows colors chars-per-pixel */
"64 64 83 1 ",
"  c None",
". c #5C4323",
"X c #5B5B5B",
"o c gray31",
"O c #656565",
"+ c #5A5A5A",
"@ c #4F391D",
"# c #797979",
"$ c #555555",
"% c #6B6966",
"& c #434343",
"* c #694D28",
"= c #6B4F2B",
"- c #6C4F2A",
"; c #634927",
": c gray37",
"> c gray35",
", c #896A3A",
"< c #555555",
"1 c #826435",
"2 c #846637",
"3 c #553E21",
"4 c #7F6133",
"5 c #585858",
"6 c #8C6C3B",
"7 c #7C5E32",
"8 c #876838",
"9 c #535252",
"0 c #5B5B5B",
"q c #533C1F",
"w c #76572C",
"e c #785B30",
"r c #594122",
"t c #503A1F",
"y c #664B26",
"u c #684E28",
"i c #5C4323",
"p c #644A26",
"a c #624825",
"s c #515050",
"d c #72562D",
"f c gray44",
"g c gray37",
"h c #4C4C4C",
"j c #6B5028",
"k c #4F4E4E",
"l c #47341C",
"z c #686868",
"x c #616060",
"c c #5F4523",
"v c gray28",
"b c #7C5B2E",
"n c gray39",
"m c #6E532B",
"M c #4E391E",
"N c #8E6D3E",
"B c #434343",
"V c #494949",
"C c #4B371D",
"Z c #906F3F",
"A c #715229",
"S c #757574",
"D c gray42",
"F c #666565",
"G c #3C3C3C",
"H c #7D7D7E",
"J c #815F30",
"K c #42301A",
"L c gray25",
"P c gray47",
"I c #3C2C17",
"U c #554B3E",
"Y c #373737",
"T c #5B554C",
"R c #665B4D",
"E c #6C5533",
"W c #716758",
"Q c #5E503B",
"! c #4A4033",
"~ c #6A583E",
"^ c #766241",
"/ c #663D52",
"( c #5C5B4F",
/* pixels */
"@MKyqICpCr3qCa3tlpqIMali3qCprClp3Itpliqqla3CqaqIrcCittlurKtiqIci",
"@tlptltlKrrqKlMtlptltlKr33KMtClaqltlKrqqIMtCqctKqllrttItql3rtK3l",
"@ql333qIKrpcCltql3qqqIKiacCCtMl33qtIKciiKCtMC3qMtIlariIMqCqq3MMI",
"@rKtrarMMMyyrCq3KtiirMMMyy3MqtKqar3Ct3yptMqtltc3rCC3apCtqCCtaqqC",
".yCMipp3tCuciC3yCMiap3tCuailrclMacattqycrliaCMaiptMrpa3larCMyriM",
".uqqpaui3quqql3uq3yauiqtuqqK3yt3pcyrq3yqqKiyMrycyrtiatqlaaMiyap3",
";prry3a3iryrMIiprry3y3i3urCIcp3rp3p3iiy3CIpaqcara3raaqlKyctpiic3",
"=c3qiqitp3lr3Kpc3qcqataqMrqKucq3itctyttrtljiqriqcqyCqrCCjrtirrc3",
"-itMl33lpqIrr3yitll3rlptIrr3uiqCtq3lulKrrrj3qlqq3MuIliriuqqKq3qt",
"*cttCp3IarliMtyitlCp3Ia3liM3urql3aqIuMCiCru3qKiiMlulMrCauqtIarlt",
".yrrtaqK3rqprCiyrttaqI33turtcprqritIr3qutqaciCarCIiq3uC3yirKy3lC",
".ycrl3tlCcipylryctCrqKtcruplipit33tK3irjilapiCiqtKriim3CyarlitMl",
"*riaKCCtKyicpli3irKCtClyraala3arCltllp3yilpqptMlqK3pruqMcrpKCltK",
"%U!UWWRUTWW~7d7de7mmded7mdej7d7emmded7jwdm7d7edmede7uQURU!UTRTUU",
" gkSHPzkkznWN6628NZZZ6ZN12N6618NZZN6Z648N6,1,ZZZNZZ6eTDHnhnHHf9h",
" 0kfDDxhV95R88811474712,44,,,22144728,416,822444428,wTSfnkfffzkB",
"X<<000<xfFsUwmebmpydjmuujded77dyjdjmujjwwd7ejcujpuauav<g<sg0g<0D",
"OSf<<VzHHSgRN8,NN216N6821,N26N611NN68126N2668e1,,2141Tsxff<<hgPH",
" fz5VV5SPg<W866284786NN,82,6,2874,6N6,82,6822b166N6,,SgfSz0hv0SH",
"$zz0s0zng59Wyme7wuumdwwwjuymebduumwwwwjyue47ejde7eewEDx<zzgs<xFn",
"%x5kgSfxkkVTe777eeee7412eme777eeee4411dde447eee74424ETxfx5sgSfnk",
" 00s0z09h5xRNZZ66688,,6812ZZZ66,886,,84,ZZN66,8,6,,2e9SPg590D0<h",
">59hh9sVvDHS,2247ee4117741,2247e7111e74282247e7114e4egFx5<kh<sVv",
"+sszPz9v5PHWpuebjacuwdjpppajbwucajwmuappambwycpdwjuap055kknPFkB<",
"#n9PSzzs<ggW22N6817,Z26,6618N,2116N16,6,4,N8272N,26,25SPgsSSDFk5",
"On<nggn<5<<T2868117,N882288862144NN282282,,2172N,8821FHDn<ngxn95",
"o<0sk5s9SS0Ujmmdeeb4wmjuujddddew77dmjuumdddwewJ7dmuuEFz955ks09<S",
"%<h<Dfn<nHfRe7471,,24447dmwwee4JJ477wemd74748,814147jk0D9h9Dfx<z",
"#nVDHPD9vgxWNN6116NN66ZZ147AwwwwwwwwwJu4Z6,2,NNN6ZZ,e<SPghfHPzhV",
" xhDDDFkVk5T288217eee7427bJrt33prtqqcwid88814eeee411m5ff0kfzDghv",
"+00005<nfD<U7de4ejuwmmjujE7iqirmp333pbimew17dudwmmujuv90g00055zS",
"%SS59VgHHSxRN6,6N846ZN6,8^~it3qpyMttpJy7Z,N664,ZN6,885<DPf<sVDHH",
" Sz0hv5fPx9W2,,224b8,6,82^Epjdmduydmdbcd8,821b1,66,2,fgffF5Vh0SS",
"$nz0sxfn55sxpudedyaumddwud7rcypjcrypuwrrpmwwuayjdmwmuF0<FF<szD05",
" n5s0SfnskhT42214444128877Jrt3qacMttabad121444412281E<zfg<sFSD0k",
" g59sx0sh0fRNNZN6811888147bc3rrjy3r3uJa7ZZN6,2128821E0Pf50s<n<kh",
"X<<ks<shvzHS2414eddw77wmdeJccuuducppmbij774emmd74wmd~g0<<s95<hvs",
"O<hnHf0V<fSFEj71emudJwdmm7JAJ8JwAb8Jwwiaue17mymbbdmmE0xxk<SHzsvx",
"#zsDSnz<955g,8Z68,16Z,6NZZJuuuaayuuaaAy78NZ,,1,Z66N6^0HSg5PFnns9",
"Og5<5gx9gn<k4428147,,14441brauyAccuT<~cd11824b862444^fSxx<55x0<z",
"$959s0<9fHF9umjjdbb7mmuppQ~cAwAAyydk!ErcmmumebbdjjppQgg995k<0sgH",
"#nvsfHf5<SSF28,,,NZN66664~~aAbAbjjwiybpe88886ZN66661E9Df9hnHSn9x",
"#DhFHSD<B<gxNN611,,,8,NZ17bAJJJbAwJbbbc7Z6818,,886N2ExHf0sHPfxvv",
"OxhnFFxs<<<k77447dmdmddeddbjjyaaaayrpbrjeeJemyjjjmmda9nnssFxn<5g",
"$nD0599fPPxk477,27w147edd1JrayyAciyyAbae4e827m447edwEV9gzn55kFSP",
" Pf0kv5SHfgg,N6,,27,NNN6,6JcAwAwyywAwJy4Z6888b26NZN,NFxPfF9v9DHP",
"$Dfx9h<nfgkD772217d12214e1JcAwjwjjwjwJcm7224eA74447e^f5xfF5h5xDn",
"+gn59zSz<<h5Emwewjjmdee7md7AJ1JbAe1JbA3amwewjuujwwbAQggxx0sxPf<9",
"#z<95fz0<h<T,ZZ6,N6666N624bjmApajAAyajp2ZZ6,6,8,,6,1E5Pf5<9DD0<h",
" g59V<5kv5PfZ6,8214122141^^rcyyAycyyAba2N,8247412474~xDx09hs5kVk",
"$ks<zzsVVDHfEmebdypmewmujQ~cAwAwyywAwbiymwbAacywwjpaQ0<sk<zf5VVn",
" FknHfFk9Fxx17,N81e8642281eaAwuwjjwjwby778681e262228^0Sf<0Hfz<kx",
"#z5gD0ngs9<T28N,224,Z,,,88bub1JJjw1JJAc486,1248Z,,,8^DHzg5D0xg9<",
"+<09s55snS0hEwwe7bb17wdmmdy3ajjc3cjjc3Mudmdwew4emjuu~Dn90<k<5sxP",
":0hs5Dn5xHPgUQRU!QWWRUQRRU!UT!!URTU!UTUUQRU!QWWRUURRU9xnhk0fz00S",
"#zh9SHf0vgzx9zPgvzHSzsVnx5gPf<sPHfgv5ngszPxVFPPzsVxx50SDskSPf0B<",
"%Fh0fFzsBB9skDz0vFFFgVBh9V0DFk9DnF9vv9sVFz0vFFngVBh<V0zFh9zxFsvV",
"$9k9<<s9gx9LLh9kh<99h<zgvGBs9ks<9kkxz<BGV9<9<9sk0zxhGBk99999h<nz",
"ogD<VvvzfD0VhV0FnhVL5Dfnshhkxz5vBvnfD0hhV5zFhvB5fDnshVkxz5vBhFfz",
"$xg9vGv<z5v5Fs0n5kLGhgnsVFg9xg9vGBsF5v5zs5x5kLLVxxhhz0kgg9vGv9n<",
"&h5sBv9<hVBk5kBs<VBk0sVvB5<vV<kBv<5hVLk5kvs9VBs5sVvB59vV9hBh05vv",
"+<vBB50sBGGLBh0kBLVg5hLLGBB50vLL50svGGGLVgkBLh09VLLGLv0<BLB05kBG",
"XsBBGvVGGG9vL55vBLLhBGYV9Bv5kBLGBvGGG9hB<<vBGGvBGYk9Lh5hBLGBvGYB",
"&LLGGGGYYB05hBBLGGGGGYY9g<BBLLYGGGYYL05VLLGGGBLYYG50sBBGGGLBGYYh"
};
