/* XPM */
static char *ebe70d5be87841dc9c783f9dc494eb2dPz6CtomCCjmwk7SO[] = {
/* columns rows colors chars-per-pixel */
"64 64 78 1 ",
"  c None",
". c #313131",
"X c #4C381E",
"o c #3A2916",
"O c #535353",
"+ c #4D4C4D",
"@ c #585757",
"# c #484848",
"$ c #5D5D5D",
"% c #393939",
"& c #3C2C17",
"* c #3F2D19",
"= c #45341E",
"- c #71422F",
"; c #42572B",
": c #674A2D",
"> c #3C3B3B",
", c #674F2B",
"< c #614A27",
"1 c #69512D",
"2 c #644D29",
"3 c #5E4726",
"4 c #584323",
"5 c #402F19",
"6 c #3B2B17",
"7 c #4D391E",
"8 c #47341C",
"9 c #43311A",
"0 c #3E3E3E",
"q c #393939",
"w c #6C532E",
"e c #434343",
"r c #503C1F",
"t c #4A361D",
"y c #3E2D18",
"u c #544021",
"i c gray27",
"p c #343434",
"a c #414040",
"s c #5B4525",
"d c #4E4E4F",
"f c gray28",
"g c #424142",
"h c #313031",
"j c #595859",
"k c #4A4A49",
"l c #382916",
"z c #4C4C4C",
"x c gray18",
"c c #555555",
"v c #5D5D5D",
"b c gray32",
"n c #373636",
"m c #312413",
"M c #352715",
"N c gray17",
"B c #2D2011",
"V c #282828",
"C c #5F4F35",
"Z c #524E4A",
"A c #595D54",
"S c #473D2C",
"D c #55574E",
"F c #494439",
"G c #4C422D",
"H c #4E5242",
"J c #514F38",
"K c #46662B",
"L c #423621",
"P c #6E5F3E",
"I c #ADD1F9",
"U c #6E907B",
"Y c #99B7D4",
"T c #6F8088",
"R c #58543B",
"E c #423B2C",
"W c #3B2C1B",
"Q c #313816",
/* pixels */
"&yBtym69M9yym5yl6tyB55M9yym9ym99yB9yl9yyM9yB896m9ly9y6l56B75lM9M",
"oym8y66mm955BM6669ylyBM859BlyMy9yllB6t55B6ym9yy6MB5856m6ym9y66mB",
"oyBy99yMM5ttM6y6my9yyml8ttmyyMly8y6mlt8tMyym6y8ylm6t85Myym659yMM",
"*8M69t966l779l59m6898665t75l96l6759lM8t76l8Ml6795yMtttly8M658965",
"*7y68tt956799M97l6t8796yt95Mt9l5r8t5M8t96M75697t85Mt99ly7668tt99",
"&79y78t99y7y6B57y9t87959ty6mtt68t8t5yt8yMm78y78t85y79ymy79579759",
"=7957589t9t9lBtt59tyt9t589Mmr9y89589988yBl79y7589t9896B8t55tyt5t",
"X75y5y8yt5m99678y65y867lM95yr9yy5y9ytmy969756yy9689B99l78565y8y7",
"Xt6ym95M89m959r9yMl95M7lM95875ym5566tmy5ytty6m95m89B955796MM95Mr",
"Xt59M75B59l8W6tt565tyB8yy8M9799Mt9MM8l99Mtt59l75B59l866tt5668yBt",
"*789Mtym69578l9r8y99ym599r56tt8lt5lm9587ly7896tym69578l978y99ym5",
"&t88myllM89t7M9t8y666m6t979lt8tM5l6m988r65t88M56MMt9t7M8tty66yml",
"=85tWWW9l7t8r6t57t6W595r978575r55W8yt79r5888ry5596r88tW7W89WW9WW",
"@ipacjZ00bZJ,<,2,1,,,,11s<22,2,,,,,,1242<,221,,,,,13S0bbnnZjbfqi",
"@z>cvjd>paiJww,<2,11,,w1<,w12<,,1,,1w,31w1<<,11,,ww<Szvbagvjbipq",
"+iqzzzf>00aE33<<3uu4u44s44<<<3suuuu44sr33<<34u4u44s4Eidzqidkd000",
" kdie0abjceE<s<2<44<3suuu334223u33s4uu4<s32<4u<3suuuEn0fdfga0djj",
"Ojce>nfvvciF1w1,1<31www1,1w11,,32www11,1w1,1231www1,Rezjcf>pacvj",
"#bbf>qgdci0Z3<,2<ss2,22<3s322<<4<222<<33<22<s42222<3Rdibbk0q0fck",
" ikg0zjd0g>Ft7u4rtt7ruu478tru47tt7uu4r887u4rtttruu47Gkeike>kjd0g",
"$da>ecdf0>0F,11,,,,2,,1,3<1w,,,,2,,,123,11,,,,2,,1,3Sfvda0gcdf0>",
"Ofe0qggqnijZw11,,2<<22<<<,w11,2<<222<<<w11,,2<<22<<<Fdcfe0qae>ne",
" 00>ii>nnbvAs43surr43suuuu4s34rrus34ruu443surr43suuuFgg000ii>nnd",
"Ozqkvczq0bdks42,<44<2s333343,23us2<3333442,<44<2s<33Ffbkqdvckqab",
"$dafbfde00gF,,w122<1w,1111,ww2,<2w11111,,w,22<1w,w11Fjvd0zbfda00",
"#gi00ei0fba>ss3<<ss,<ss44333<<3s223ssss3s3<3s3,<ss44Hjkge00ii>kd",
" a000ki0dvceruuu433suurr78885877r8595y9ruuus33suurrtEii000gkgabv",
"$bqqcvci>dcZ11w1,wwwwwww<3DDDDDDDDDDDdC11w,1wwwwww13Szvkqfvvba>b",
"@cagjccgpqgi,w122222<2,1<<vGGJGSGGGSSbC1w122222<2113Ecjd>bjcd>hq",
"#f0akffafkgq44s34r7ururrruALFvAAADF95eGs433477urrru7ngke>kffegkf",
" kjza0>cvvd><2<1123,,2<33,AFAYYIIIT89iC12,1,<<,,2<33E>ebcegqivvj",
"+jck0p0dvbekC11,,<3,1w11,1ALJYIIIIT8LkC,112,<<11w1,,Dfbjdeqnijjz",
" ebka0kzki0zGr434r7u4444r4ALGUUUUUA55eu7us34rrus444rZk0zde>ezzfe",
"+dia0djba>q>G433s444s33<usALSKKKKKH89ks4s33444433<<rFfbfe>ijcf>0",
"$cee0fza0>ziCwww1122,,,232ALGKKKKKH9LkCwww11,22,,,2sFcjig0ede0>i",
"#ee0q00qpgvjC<2<3s43<<ss3sALLRRJJRJ9Wfs2<2<s4s3<3ss4iffg0>>a>n>j",
" gq0bjiqpdvbSt43ut8r4ur774DL9t88889FFk4trssr8tu4rrt7iee>>dvz>pkv",
"$jigvdzi>eifC2ww22<,w,1111AW599y55LJLd1,,w,,<2ww211,ejjk>jbzk>ae",
"@kfaeeke0kg>s<2,2<3,12<<<<AHHHHHHHHHHA322,2<3<1,<<<<Zvzf0iiff0ia",
"#00e>ae>fvbaSrrru4ssur77t7CPPCPPCPPCPP4rrrr4ss4rr77tik00g>0e0ivc",
"+caqfjjk0djdC22221w1,,,,33,ww1wwwwwwww<2222,w11,,,2u>zc0qijjk>dv",
"$jk>vvckpqeiCw1<<,11,,ww<2w1,<,,1,21w2<w1,<2,11,1w,savjf>vvckpqi",
"+za>dkzgaeg>Gs3<3ururuu4uu3s<3uruuuuu4u3s<34ruuruu47>kz0>zfzaaea",
"%eddag>zjvb>s23,2<4<<<s44<23,,<4<2<3443232,<432<344un>ibdga>djvd",
" bjbaqqzvjkiCw11,,3,www1,,w11,,321ww1,,111,,<<1ww1,Czijjd0n>dvck",
"#addiqafdk0fJu3<34rs333s4uus<3sr4333s4uus<<su43333ssbeibzg>ekdf0",
" kfi0ecji>00Gr444rrru443u7ru44rrru443u7ru4surrr44347ifkfe0kjc00q",
"Ojfa0ibiaqeeJwww11,,111,<2www11,,,11,2<www11,,,11,24gjcga0zde0>i",
"#faa>>a0nqjvR222<ss<2233<21,2<3s<<2<3<<1,2<3s3<2<3<sfzie>nq0>piv",
" e>qkjd>pivjGtus478rs4u7rrru34rtr44urrrru3srt74sur7Seea>0bcenqcv",
"@vd>bczz>aiiC<,w,23,w,,,112,w,2<2w,,1112,w,2<2w1,11Cijcgivddg>ei",
"$bfegeif0fe0G22,2<3,w22<<222,2<32w22<<222,2<32w,2<<Ccjffaiekeaea",
"+a0e0>a>ajceErrrru43ur77777rrru43ur77777rrru434r777Skf0aaqga>dvz",
" bkn0bjd0fjda>Zfp>DAZ>>Zka>Zkp>ZAZ>>ZZa>ZkpnZAZ>qZZa0zdqqzjbegjc",
"Oczqzjbzqh0e0kjdqkjbzqh0e0kjd>kjbzqh0e0fjd>gjcd>h0e0ijd>ajcd0h>g",
" ianaeia>a0qh>igngeea>g0qh>igngeea>g0qhqegn0ieaqa0qhqiep>iegqa0>",
".qiz0qp0dbz>hhqez0qp>dbz>xhqez0qpqdbd>xhqez0qnqzbz>xhqgf0qqqkbd0",
"%ezi>hx>kdaqfaazf0pxqzdgqiagzf>px>zde>iaazf>pxqkdeqfgazf0pxqkdeq",
" n>e>hp>00nnfap>e>pp>00npfgp>e>pp>00nnkgn>e>pp>00nnken>e>pp>00nh",
".00nhpee>hhxpp00nhpee>hhNpp00nhpee>hhxpp00nhpee>hhxpp00nhpei0hhN",
"%e>phxqnxNpqxqe>hhxqpxNp>hqi>hxxqnxNpqxqiqhhhqpxxpqxqi>hhh>nhxpq",
".hxxNxhNVV>i0ppxhNNxNVV0i0hpxxNNxxVV>i>hphhNNxNVV0i>pphxNNxNVV0i",
".hhVha0hVN>>phphVha>xVx>>phphVp0qxVx>>pxpxVpaqxVx0>phpxVpaqxVh0>",
".0qNh>hpNVNxNh0qNp>hpNVNxNp0nNpqhpNVNxNp0nNpqhpNVNxNp0nNnqhpNNNx"
};
