/* XPM */
static char *_5fa7d7b20b24bada68fbc6b40d115ac41BsDDPb8it9aNf6[] = {
/* columns rows colors chars-per-pixel */
"64 64 256 2 ",
"   c #557A03",
".  c #627E0A",
"X  c #656028",
"o  c #6D7C46",
"O  c #5A7260",
"+  c #668B15",
"@  c #699316",
"#  c #779B18",
"$  c #6A920B",
"%  c #7CA719",
"&  c #75932D",
"*  c #5E8A14",
"=  c #778D58",
"-  c #768B71",
";  c #82A919",
":  c #88B412",
">  c #879932",
",  c #86A628",
"<  c #95B82B",
"1  c #88A737",
"2  c #90B330",
"3  c #A3BE37",
"4  c #98C21B",
"5  c #A3C31F",
"6  c #9BC638",
"7  c #97C526",
"8  c #A5CA39",
"9  c #A6D636",
"0  c #AACE2C",
"q  c #8B914D",
"w  c #96A847",
"e  c #98B848",
"r  c #9AA859",
"t  c #99B457",
"y  c #8CAA4C",
"u  c #A2AA5A",
"i  c #A5B859",
"p  c #ACBC4D",
"a  c #8B9A66",
"s  c #869574",
"d  c #969C73",
"f  c #959666",
"g  c #9AB566",
"h  c #98A76F",
"j  c #A6AA66",
"k  c #A8BA67",
"l  c #B6BB67",
"z  c #A7B778",
"x  c #B8BA77",
"c  c #ABAC79",
"v  c #9EC546",
"b  c #A6C949",
"n  c #A8D347",
"m  c #A9C658",
"M  c #B2CC5B",
"N  c #ADD454",
"B  c #B7D658",
"V  c #BAD049",
"C  c #A9C665",
"Z  c #B5C96A",
"A  c #B9D368",
"S  c #B6C876",
"D  c #BAD476",
"F  c #AECB75",
"G  c #BDE15B",
"H  c #C3D96B",
"J  c #C6C979",
"K  c #C4DA73",
"L  c #C5DB7B",
"P  c #CCDD7B",
"I  c #C7D875",
"U  c #D6D57B",
"Y  c #CBCA6E",
"T  c #C7E469",
"R  c #CBE478",
"E  c #D5E57C",
"W  c #D8F17D",
"Q  c #E5EB7D",
"!  c #CEDE65",
"~  c #C0B65D",
"^  c #7A8780",
"/  c #8C988D",
"(  c #99A988",
")  c #96A498",
"_  c #8CAB95",
"`  c #A7AB88",
"'  c #A9B589",
"]  c #B6B989",
"[  c #A9AA94",
"{  c #A9B697",
"}  c #B8B996",
"|  c #B2AE8B",
" . c #9AADA8",
".. c #A8B6A6",
"X. c #B8B9A3",
"o. c #B5B9B6",
"O. c #AAB1B1",
"+. c #C3B98E",
"@. c #C1BBA5",
"#. c #B8C787",
"$. c #B9C698",
"%. c #B5CD8E",
"&. c #93C8AF",
"*. c #A9C7A7",
"=. c #B8C6A9",
"-. c #BCD4AB",
";. c #B7C9B9",
":. c #A9D3BA",
">. c #B9D5B7",
",. c #A8D0B2",
"<. c #AED9A7",
"1. c #C5CA87",
"2. c #CCD485",
"3. c #CCDD82",
"4. c #CCD58B",
"5. c #C5D687",
"6. c #D3DE8D",
"7. c #D7D989",
"8. c #C5CA98",
"9. c #C6D49B",
"0. c #C9D796",
"q. c #D5DB97",
"w. c #D0CF9F",
"e. c #E5DD83",
"r. c #CCE386",
"t. c #D4E28B",
"y. c #DBE58C",
"u. c #D6E888",
"i. c #D7F38A",
"p. c #CCE496",
"a. c #D4E394",
"s. c #DBE394",
"d. c #DDEA93",
"f. c #D4E49C",
"g. c #DCE49C",
"h. c #DDEA9C",
"j. c #D4EC99",
"k. c #DCF497",
"l. c #E5EA8A",
"z. c #E9F58A",
"x. c #F3FA8B",
"c. c #E2EC94",
"v. c #E4EC9C",
"b. c #EBEC9B",
"n. c #E5E796",
"m. c #F2EE99",
"M. c #EAF495",
"N. c #E5F39B",
"B. c #EBF49C",
"V. c #E8F897",
"C. c #F5F999",
"Z. c #C6C9A7",
"A. c #CDDCA4",
"S. c #C8D7A8",
"D. c #D6DBA7",
"F. c #C6CBB5",
"G. c #C9D8B8",
"H. c #D7DBB6",
"J. c #D1CCB6",
"K. c #E5DFB1",
"L. c #CBE5AA",
"P. c #D5E3A3",
"I. c #DCE4A3",
"U. c #D4ECA3",
"Y. c #DCEBA3",
"T. c #D4E5AB",
"R. c #DCE5AB",
"E. c #DDECAC",
"W. c #D6EDAD",
"Q. c #D9F2A7",
"!. c #CDE7B5",
"~. c #D9E8B7",
"^. c #DDF3B6",
"/. c #E2E5A4",
"(. c #E4ECA3",
"). c #EAEDA3",
"_. c #E4ECAB",
"`. c #EBECAC",
"'. c #E3E5AC",
"]. c #F2EAA3",
"[. c #E3F4A5",
"{. c #EBF3A4",
"}. c #E5F3AB",
"|. c #EBF4AC",
" X c #EDFAA7",
".X c #F4FBAB",
"XX c #F6F8A7",
"oX c #E4EBB3",
"OX c #EBEDB3",
"+X c #E4ECBC",
"@X c #E6E6B8",
"#X c #F7EBB9",
"$X c #ECF3B3",
"%X c #ECF5BA",
"&X c #E8F7B7",
"*X c #FBFDB3",
"=X c #F4F8B9",
"-X c #B6C9C4",
";X c #B4D5C4",
":X c #B9D8C9",
">X c #B9D8D8",
",X c #ABD0C8",
"<X c #BDE1D8",
"1X c #BCDDE3",
"2X c #BEE1E2",
"3X c #9DD3C3",
"4X c #C7D9C6",
"5X c #C6DBD6",
"6X c #CFD2CC",
"7X c #E2DEC1",
"8X c #D9E7C6",
"9X c #DBF2C6",
"0X c #C6E4D9",
"qX c #DAE7D5",
"wX c #DDF7D9",
"eX c #C7E3CA",
"rX c #E6EBC6",
"tX c #EAF7C8",
"yX c #F2FAC3",
"uX c #F3FCCC",
"iX c #FCFECC",
"pX c #F8F5C6",
"aX c #EBFBD4",
"sX c #ECFCDC",
"dX c #E7F5D8",
"fX c #FEFED3",
"gX c #F6FBD6",
"hX c #E1EAD5",
"jX c #CCDFE2",
"kX c #D6E8EB",
"lX c #D9EBF3",
"zX c #DDFDFE",
"xX c #DAFCFB",
"cX c #D2EEE4",
"vX c #EBFCE4",
"bX c #ECFDEC",
"nX c #E4F8E7",
"mX c #F2FDEC",
"MX c #F2FFE4",
"NX c #E3FEF4",
"BX c #ECFEF4",
"VX c #E2FFFF",
"CX c #E6FFFE",
"ZX c #E3FDFD",
"AX c #E9FEFA",
"SX c #E9FFFF",
"DX c #EAFFFE",
"FX c #EEFFFF",
"GX c #EBFEFC",
"HX c #E4F6FB",
"JX c #F2FEF5",
"KX c #F1FFFF",
"LX c #F2FEFE",
"PX c #F2FFFB",
"IX c #E2EFF8",
"UX c #E1DEE9",
/* pixels */
"LXLXLXLXLXDXDXHXCXNXNXNXNXZXVXVXZXzXZXVXCXCXDXDXHXVXVXVXzXxXxXxXxXxXzXVXCXDXFXFXLXLXLXLXLXPXGXPXGXPXPXLXLXFXFXDXHXxXzXzXzXzXxXxX",
"LXLXLXLXLXFXDXHXAXNXNXNXNXNXZXCXZXZXZXVXCXCXDXDXZXCXVXVXzXxXxXxXxXxXzXVXCXDXFXFXLXLXLXLXLXPXGXPXGXGXPXLXLXFXDXDXZXVXzXzXzXzXxXxX",
"BXGXFXLXLXFXDXAXBXbXbXvXbXbXBXAXNXZXZXVXCXCXDXDXCXCXCXVXzXxXxXxXxXxXzXVXCXFXFXFXLXLXLXLXLXPXPXPXGXGXLXLXLXFXDXDXCXVXVXzXzXzXzXzX",
"BXBXGXFXLXLXGXBXbXvXsXsXsXvXvXbXNXZXZXCXCXCXDXDXCXDXDXVXzXxXxXxXzXzXzXVXDXFXFXFXLXLXLXLXLXLXLXLXGXGXFXLXLXFXDXDXCXVXVXVXzXzXzXzX",
"bXBXBXGXGXPXJXmXsXaXaXaXaXaXaXvXNXZXZXZXZXAXDXDXDXDXDXCXzXxXxXxXzXzXVXVXDXFXFXFXLXLXLXLXLXLXLXLXGXGXFXLXLXFXDXDXCXVXVXVXzXzXzXzX",
"BXBXBXBXGXBXJXmXaXaXtXyXyXuXuXsXbXZXZXZXDXDXDXDXDXDXDXCXzXxXxXxXVXVXVXCXDXFXLXFXLXLXLXLXLXLXLXLXAXFXFXFXFXFXDXCXCXVXVXVXzXzXzXzX",
"AXAXAXAXGXBXmXmXaXtXtX%XyXyXpXgXbXNXNXZXAXAXDXAXCXDXDXCXVXzXxXzXVXVXCXCXDXFXLXLXLXLXLXLXLXLXFXFXAXDXFXFXFXFXDXCXCXVXVXzXzXzXxXxX",
"AXAXAXAXAXBXBXmXaXtXtX%XyXpXpXgXbXAXAXZXAXAXAXAXCXDXDXCXCXzXxXVXCXCXCXDXFXFXLXLXLXLXLXLXLXLXFXFXDXDXDXFXFXDXDXCXVXVXzXzXzXxXxXxX",
"CXCXCXCXDXFXBXmXsXuXyXiXfXiXpXpXmXBXAXAXAXAXAXAXDXDXDXDXDXCXCXCXCXCXDXFXFXLXLXPXLXLXLXLXLXLXFXFXFXDXDXDXDXCXCXCXVXVXzXzXxXxXxXzX",
"VXVXCXCXCXDXBXmXsXuXuXfXfXiXpXtXmXGXGXAXAXAXAXAXDXDXDXDXDXDXDXDXDXDXDXFXLXLXPXPXPXPXLXLXLXFXFXDXDXCXDXZXCXCXCXVXVXVXzXzXxXxXxXzX",
"VXVXZXHXHXDXBXbXvXaXgXfXfXfXpXpXmXJXGXGXAXAXAXAXDXDXDXDXDXDXDXDXAXDXDXGXLXPXPXJXJXJXPXLXFXFXDXDXCXCXZXZXZXZXVXVXVXVXzXzXxXxXzXzX",
"VXVXVXZXHXHXAXbXsXaXgXfXfXfXiXgXmXJXPXGXGXAXAXAXDXDXDXDXDXFXFXFXAXAXGXJXJXJXmXmXmXJXPXPXFXFXDXCXCXZXZXZXzXzXVXzXVXVXzXzXxXzXzXzX",
"VXVXVXCXHXDXAXbXdXdXgXfXfXfXfXgXmXJXJXJXGXAXAXAXAXAXDXDXFXFXFXFXAXGXGXBXbXvXnXdXvXJXPXJXGXFXFXDXCXZXZXxXzXzXzXVXVXzXzXzXzXzXzXzX",
"VXVXVXCXCXDXBXbXdXdXuXfXfXfXiXgXmXJXJXJXGXAXAXAXAXAXDXDXFXFXLXLXGXGXJXbXbXdXqXqXdXmXJXBXAXFXFXDXZXZXZXZXzXzXzXzXzXzXzXzXzXzXzXzX",
"xXxXzXVXCXAXAXbXsXaXuXiXiXuXuXgXmXJXJXJXGXAXAXAXAXAXDXDXFXFXLXLXGXBXJXbXvXdXqX8XqXvXJXbXBXGXFXHXZXZXZXzXzXzXzXzXzXzXzXzXzXzXVXVX",
"wXwXnXnXNXAXBXbXMXsXuXuXyXyXyXuXMXmXJXJXGXDXDXCXCXAXAXAXGXGXLXLXGXGXJXbXsXrX8X~.8XaXMXvXnXBXGXZXZXZXZXZXzXzXzXzXzXzXzXxXzXVXVXVX",
"Q.L.!.wXbXbXBXBXmXvXaXtX%X}.}.&XtXaXbXBXHXZXCXZXVXDXAXBXBXJXJXBXGXFXJXsX~.E.}.Y.U.yXgXaXqXnXBXBXnXxXNXZXzXzXxXxXxXzXVXxXHXHXDXHX",
"k.j.U.9XsXbXBXPXmXmXaX^.E.}. X[.E.9XvXPXHXHXDXVXDXDXAXbXbXbXbXBXFXLXJXdXW.Q.[.d.p.Y.tXaXdXdXnXNXNXNXNXxXzXzXzXzXxXVXZXlXkXlXHXLX",
"i.j.U.^.aXvXbXbXmXmXtXT.P.[. X[.T.~.vXPXDXHXHXzXDXCXAXbXnXnXbXPXFXDXbX9XL.U.[.j.p.p.^.aXvXwXwXAXAXCXHXxXxXzXVXVXCXDXCXkX5X5XIXLX",
"i.j.j.W.tXdXdXqXvXsXrXP.f.h.[.[.W.8XdXBXDXHXHXlXlXHXNXnXnXnXbXBXFXZXnX9XL.U.Q.j.Q.L.L.9XwXwXwXBXDXHXHXHXZXZXZXNXAXGXNX0X-X4XqXmX",
"i.k.U.W.rXdXqX4XsX8XD.P.f.a.s.[.~.!.qXbXAXFXHXkX5XNXBXnXqXvXbXnXDXNXnX9XL.U.Q.j.Q.W.L.S.G.8XwXnXlXlXIXHXDXAXAXnXnXnXwXeXF.G.8X8X",
"i.j.j.L.~.hX8XF.dXH.9.q.q.5.4.f.A.S.8XdXbXLXFXlX4XnXJXdXqXdXdXqXAXAXvX9XS.p.p.p.U.^.W.-.-.9XsXnXqXjXkXnXBXmXvXdXdXaXdX8X~.8X8X~.",
"5.4.%.%.S.8X8XG.dXH.9.0.5.1.1.4.9.S.~.sXvXvXnXqX4XqXvXdX8X~.8XdXnXvXsX~.%.#.D F p.Q.^.T.!.tXaXdXqXqXqXhXdXaXdXrXtXtXtX+X+XrXrXrX",
"S S z c $.8XhXH.rX~.9.#.#.#.1.#.0.A.tXgXtXrX8XG.G.G.8XtX~.S.T.gXdXaXaXT.S k k u S a.E.oX+XtXtX^.rX@X~.~.+X+X@XR.oXOXOX_._.OX%X%X",
"1.z z ] Z.8X7XdXtXgXD.OXD.j 0.&X=XP.=X_.%XoX&X~.A.~.%X%X%X0.&X%XtX+XR._.5.l l l i {.).q.P.$X}.f.|.$X$X$X*X*X(.q._.$X$X`._.|.|._.",
"x x D.~.rXdXrXrXrXuXD.%X%X8.E.%X=Xh.[.[.J s.v.$X%X%XoXP.(.4.[.}.oXOX=X|.n.U Y U n..X*X|.*X).S u u.B.XX XXX.X).1.`.`.g.q.(.).h.h.",
"x 1.'.K.H.@XH.rXrXyXR.=X$X1.D._.{.N.N.d.1 u.c.B.v.*X$Xg.(.6.B.N.(.`.*Xn.b.m.Y U XX].*X].*Xn.w w W x.C.M.B.{.J q x /.$Xg.v.c.d.N.",
"1.q.OX'.D.@X@XpXOX=X_._.q.z 1._.h.B.B.E > l.C.U i v.*X{..Xd.B.B.v.).XX7.m.XXY U ].b.*X2.7.l.l Y x.x.z.z.XX).x q f OXiX).v. XC.V.",
"x 1.`.`.'.OXD./.`..X).n.7.S 4.|.g.2.M.E p z.C.Y w 7.{.s..XN.C.M.S q.*Xs.m.XXJ n.XXXX*Xj J b.l.M.x.Q z.C..X/.8.] ] oX$Xh.V.C.i.R ",
"l x 7.n.`.`.q.q.XX{.c.c.b.s.6.h.h.i u.l.z.Q x.U l 7.2.l b.B.V.y.q 1.*X).n.n.J b.*X|.`.u 2.{.C.V.z.z.C..X/.1.} Z.| ] q.|.k.A b n ",
"l.U 7.b.XX.Xb.XXC.M.z.l.C.B.6.6.s.k y.l.C.Q z.Q U b.J j b.B.M.y.r 1.|.).2.J J 7.`./.D.x v.4.s.M.V.V. X|.D.+.} @.[ | R..XI e 8 8 ",
"m.U e.m.XXXXn.C.M.M.C.z.V.M.c.B.6.4. Xl.z.z.z.l.Y b.7.x XXB.M.c.).|.{.).4.J 1.x `./.'.q.$Xj J B.V.c.v.|.%XpX7XJ.rXH.%Xh.m N G 8 ",
"m.m.m.m..X|.).XXb.C.l.M.M.d.N.d.s.q v.b.n.n..X7.J n.S J {.n.c.M.M.d.B.B.I 2.n.2.1.1.=X=X`.q q n.u.l. X.XOXD.D.H.~.A.}.5.A N n 8 ",
"b.b.v.(.&XE.R._.I.(.v.n.s.a.Q.&X$X1.=X(.(./.(.q.6.{.4.6..X[.v.N.N.d.c.c.2.s.{.v.).$X`.q.x X q 4.c.c.B.{./.R.'.%X+Xq.Y.D M b n 6 ",
"$X$XoX~.9X8XeX8XG.H.+X+X~.~.!.!.T.~.~.A.T.P.P.E.T.&XP.T.%XE.E.E.Y.I.I.I.I.`.$XOXD.=XOX=XD.f w./.c.c.v.(.I.D.w.A.D.1.a.Z A N n 6 ",
"+XH.G.4X:X:X:X;XeX>.G.>.>.4X>.>.*.-.=.-.-.-.S.!.G.~.!.!.9X~.!.!.H.~.H.~.+X+XD.D.c ] 8.pXiX'.pX_.h.v.|.$X'.D.D.H.R.8.q.Z M b 8 < ",
"~.=.*.;X,X,X,X3X:.:.;X;X:X:X;X;X:.*.*.:X,.*.>.>.>.:XeX4XeXeX;X4X4X4XF.F.4XG.=.} ' a d S.+XtX@XR._.}.oX~.D.H.rXgXrX9.q.i w 2 2 , ",
"~.' ( ,.:.:.3X&.&.,X:.,. ._ ,X;X0X:.;X;X;X:.;X:X:X;X<X>X>X<X;X:X5X-Xo.o.o.....[ { s s $.H.rXS.~.~.~.~.G.=.{ { X.` h #.r w > , , ",
"R.a a *.*.&.&.&.:.:.- - O O ;.5X<X:X:X_ :X<X:X0X0X,X2X>X>X2X>X>X5XO.O.O. . .) / / / / =.F.=.X.G.G.G.4XG.o.) - - - s #.z r > > & ",
"*Xj r S.L.<.<.<.*.<.= - s s G.>.;X0X:XO ,X0X,X0XjX,X0X>X>XjX>X>X>XO.O.o. .) ) ^ / 4X..4X=.) ..4X4X:X:X:X:X-XO. ...{ G.z q & & & ",
"e.XX6.&XL.h L.!.L.S.a a f d D.G.4X:X_ - ,.0X0X5X5X:XjX,XO.kX>X5X..4XqXO.) O - ;.;.o.4XqX;./ ) 5X5X>X>X>X>X>X,X,XO.>.4X*.o o = g ",
"e.C.y.|.P.' W.^.^.~.h q q f +.| s ( s - ..>.>.4X4X4X) 0X0X-X5X4X=.hX8X( / ) ....;.-X4X5X-X .o.5X>X>X1X2X1X1X>X>X5X0X4X*.- = = z ",
"U m.b.|.R.A.+X+XD.K.] c ] +.w.d h ( d ( Z.=.{ =.F.F.- 4XdX{ ..( 8XS.' ( ( =.=.=.F.4X6X4X4X4X5X5X0X<X<X2X2X2X<X5X:XeX4XeX-.{ = h ",
"~ U ).).R.+X+XOX@XpX#XpXfXfXpXZ.~.9.#.8.A.] h ' ~.8.d ` H.G.` ` yXz a $.8.8.} S.Z.G.4X4X4XqXqX4X5X:X:X:X:X;X:X:XeX4X=.G.G.$.a c ",
"> l b.(.'.yXOX#X#X#XK.#XpX#X@X'.'.g.P.I.0.c j 1._.] f o ] oX8.R.I.4.#.E.R.OX9.8.D.S.S.S.H.G.G.G.>.>.>.>.>.>.-.-.-.-.$.$.9.#.q j ",
"> l d.h.(.%X=X#XiX#X#X=X=XOX%XyX`.(.{.|.v.2.4.g.q.1.r r q.g.`.|.q.h.g.g.I.|.}.$X$XR.D.A.A.A.A.L.9.S.L.L.L.L.S.S.$.9.9.P.4.x > q ",
"m R i.k.h.|.=X=X].].].].{.(.Y.Y..X{.).).v.v.).v.).).6.(.*Xq..Xq.2.q.s.s.).2.4.|.Y.(.}.Y.g.f.Y.Y.j.a.a.p.p.p.j.j.[.h.6.5.l J l J ",
"i.B.N.k.Y.(.*X|.XXm.m.l.d.[.U.j.a.d.v.7.Z J n.b.B.B.XXd.c.L y.Z l y..XB..XZ r u J g.|.}.(.(.v.h.[.a.5.Z Z D t.d.a.t.s.s.J 7.J 7.",
"c.c.g.R.yXiX$Xv.C.M.z.V.k..Xp.0.j.N.r.r.u w w 7.M.l.V.E m b B e m D r.N.c.D u j j D.OXD./.|. X|._.f.5.5.S k Z j.|.}.}.Y.0.q./.a.",
" X.X=X%X%XpX%X{.d.z.z.z.L p.#.%.D r.r.i.3.I S y.l.u.l.R N n N v b C H u.V.y.4.q.8.@XK.D.`.$X).|._.&X0.j r k S S 0.oXoXD.T.T.R.&X",
"M.B.*X=XoX@X%X).I I R K C D #.0.F D F 5.a.h.s.v.c.t.I M m N n b m M C K N.{.}.$X@X@XK.H.@X`./.|.(.}.S q q r r q 8.uXrXG.8XH.Z.rX",
"R H c..X_.OX_.1.l i m m m F z #.#.F C S f.$X_.}.(.5.i w e b b n N M i m r. X$XoXH.7X7XH.D.D./.`.*X{.2.Z Z Z x #.c Z.F.X.4X6X4XhX",
"V p H c.{.|.q.w i i A A D F t g g g g F T.E.P.D.}.5.y 1 e v 6 n b b 1 w L }.oXH.J.J.J.@.Z.K.OX/. XN.t.d.B.d.g.%XS.F.F.o.O.o.o.O.",
"8 3 V E B.{.1.q w w C i i t g F g y r z L.A.D.R.T.S t t b n 8 8 n b 2 1 D [.R.8.J.@.X.[ } @X%Xg.6.c.d.d.V.{.(.oX8.[ [ O.O.6XUX6X",
"5 5 V T z.B.6.Z w > t y y y t D %.k z %.^.A.T.^.0.g y m b n 9 9 n n 2 , Z h.D.] Z.X.X.X.} D._.h.s.B.B.d.N. X(.I.H.J.o.O.o.6X6X6X",
": 5 9 G W V.V.N.t.D r.D r.Z C C D C F 0.%X%.' #.#.y 1 v 6 6 9 9 9 9 2 , M k.f.] } } J.H.8.#.q.v.y.d.y.t.M.B.v./.H.rXX.[ F.6Xo.6X",
"0 5 0 8 b W V.r.r.V.N.u.k.C & Z D D k k j.Q.%.z S y & 2 6 9 9 0 9 7 % , , D j.R.$.} ' ] #.4.6.t.d.d.y.t.u.c. X*X'.D.8.} [ [ [ [ ",
"4 4 5 < 3 T z.u.d.r.L u.k.C & Z C C t g %.j.j.p.5.t 1 2 < 9 9 7 : 4 : % , R N.f.0.9.8.8.0.a.y.y.s.s.y.y.u.y.c.{.=X%X'.S.} ] ] ] ",
": : < < 2 B W u.R r.u.u.k.r.y 1 C m C Z D r.j.r.D e 1 2 < 8 0 : : 7 7 $ # N k.j.Y.P.q.q.a.d.y.u.t.s.y.u.u.u.t.y.|.=X%X$XD.0.1.1.",
"# ; ; ; 2 N R R D L u.L R i.C 1 1 > w t i A u.r.C & # , , < 7 ; : % < # % 2 R i.k.h.a.a.a.u.E R t.t.t.u.E E P P 6.h.|.=X&X(.q.5.",
"$ # # # < B T T R m m C C A D D m w w w w C u.i.m + . # # ; 2 ; $ $ % $ % 2 H u.u.t.t.6.r.R P I t.3.3.P P R P P 6.6.f.}.=X$Xh.6.",
"  $ $ # 6 T T T A i m i t C Z R V.R H A A H R R m + . + . + , # + @ @   * 3 R R r.r.3.3.P P K K 3.5.P I P P P P 6.5.5.0._.&X.X|.",
"  + + @ b T T A b m A C k C i Z D H A K E R H T A , , , . & 1 + & & @ * + b R R R R 3.L L I K K P L K K K K K I 5.5.#.%.0.P.&X=X",
"  @ + $ 6 G B B e 1 e Z F y y r.L P A A K A M H T m A m > e m + + * @ 2 v T T R R R L L I I K K I I K H K K K D L 5.4.%.#.#.0.Y."
};