/* XPM */
static char *_6fe165c08164949adf33e09db9b572eiLoGSHr6BU3w7OMV[] = {
/* columns rows colors chars-per-pixel */
"64 64 254 2 ",
"   c #687918",
".  c #677515",
"X  c #727B29",
"o  c #6C7526",
"O  c #5C6E08",
"+  c #667862",
"@  c #778E16",
"#  c #758528",
"$  c #7C8638",
"%  c #768822",
"&  c #7A8B71",
"*  c #829D18",
"=  c #859A28",
"-  c #869639",
";  c #81873B",
":  c #88A727",
">  c #9BB739",
",  c #92AD34",
"<  c #A0BB39",
"1  c #80A116",
"2  c #A1C236",
"3  c #838B45",
"4  c #889742",
"5  c #959A57",
"6  c #949451",
"7  c #B09B5C",
"8  c #98A247",
"9  c #99B248",
"0  c #9AA857",
"q  c #93B34F",
"w  c #A3BA49",
"e  c #A4AB58",
"r  c #A6B657",
"t  c #B3A05E",
"y  c #869A7B",
"u  c #9AAC70",
"i  c #A7A864",
"p  c #BAA665",
"a  c #AAB766",
"s  c #B6B768",
"d  c #A9B778",
"f  c #B8B775",
"g  c #B9AF72",
"h  c #B99F64",
"j  c #C9B774",
"k  c #C9B271",
"l  c #A9C65B",
"z  c #B5C95C",
"x  c #BBD257",
"c  c #B4CE4C",
"v  c #A9C469",
"b  c #B8C868",
"n  c #BED466",
"m  c #BAC876",
"M  c #BCD376",
"N  c #BAD37A",
"B  c #ABC875",
"V  c #C5DB5A",
"C  c #CBE15E",
"Z  c #C5DA65",
"A  c #C9DE64",
"S  c #C3D66C",
"D  c #C6D96D",
"F  c #CADE6B",
"G  c #C2D761",
"H  c #D1DF6D",
"J  c #C6CD78",
"K  c #C3D473",
"L  c #CADC73",
"P  c #CBD47B",
"I  c #CCDD7B",
"U  c #C6D777",
"Y  c #D3D57B",
"T  c #D4DB7B",
"R  c #DADE7D",
"E  c #D1D875",
"W  c #D4C57E",
"Q  c #CDE264",
"!  c #CDE26C",
"~  c #D1E565",
"^  c #D2E56C",
"/  c #D4E96C",
"(  c #D7E76B",
")  c #CEE374",
"_  c #CFE973",
"`  c #CEE17B",
"'  c #C8E87B",
"]  c #D2E573",
"[  c #DAE473",
"{  c #D5EA74",
"}  c #D9EB74",
"|  c #D3E57B",
" . c #DBE47B",
".. c #D5EA7C",
"X. c #D9EC7D",
"o. c #DDF17E",
"O. c #D6F079",
"+. c #E1EB7F",
"@. c #8A9B88",
"#. c #97A790",
"$. c #A6B895",
"%. c #B3BB92",
"&. c #A5B5A6",
"*. c #B5C486",
"=. c #BAD684",
"-. c #B6C799",
";. c #B3C894",
":. c #B9C9A9",
">. c #BBC8B5",
",. c #BFD0AC",
"<. c #BEE093",
"1. c #C9CC85",
"2. c #D7C98A",
"3. c #CDDB83",
"4. c #C8D887",
"5. c #DBDD8C",
"6. c #D4D886",
"7. c #C5CB97",
"8. c #C9D898",
"9. c #DADC94",
"0. c #D7DC98",
"q. c #DDCD92",
"w. c #E3D090",
"e. c #CAE186",
"r. c #D4E483",
"t. c #DAE484",
"y. c #D6E982",
"u. c #DAEC83",
"i. c #D4E48B",
"p. c #DCE58C",
"a. c #D7E88A",
"s. c #DBEC8B",
"d. c #DDF184",
"f. c #DEF18B",
"g. c #CBE397",
"h. c #DDE493",
"j. c #DCEC93",
"k. c #DDE59B",
"l. c #DCEB9A",
"z. c #D5E698",
"x. c #DFF092",
"c. c #D8F49E",
"v. c #E1EB8D",
"b. c #E1E887",
"n. c #E1F38D",
"m. c #E4F387",
"M. c #E3EC94",
"N. c #E3E49B",
"B. c #E4EC9B",
"V. c #E6E897",
"C. c #E2F393",
"Z. c #E3F29C",
"A. c #E9F29D",
"S. c #EAFB98",
"D. c #C2CDA6",
"F. c #C4D3A4",
"G. c #C8D8A9",
"H. c #D4D9A6",
"J. c #C9D8B7",
"K. c #D3DDB8",
"L. c #D5CEA2",
"P. c #E1DEAB",
"I. c #CDE3A3",
"U. c #CAE6A9",
"Y. c #D8E6A8",
"T. c #DAF4A9",
"R. c #CBEBB5",
"E. c #DAECBB",
"W. c #D7E8B6",
"Q. c #CDF2B4",
"!. c #DAF6B9",
"~. c #E3E4A1",
"^. c #E5ECA3",
"/. c #EAECA4",
"(. c #E5E4AC",
"). c #ECECAB",
"_. c #E8E8A7",
"`. c #E4F2A2",
"'. c #EBF3A4",
"]. c #ECF2AE",
"[. c #ECF9A6",
"{. c #F4F9AB",
"}. c #E7EBB5",
"|. c #E3F4BC",
" X c #E8F7B8",
".X c #F2F4B2",
"XX c #F5FCBC",
"oX c #F7FCB3",
"OX c #F1EEAB",
"+X c #CAD7C8",
"@X c #CDDAD5",
"#X c #D2DED9",
"$X c #D1DCC7",
"%X c #DBEEC3",
"&X c #D4E1CB",
"*X c #D5E9C7",
"=X c #D2F3C6",
"-X c #DCF4C4",
";X c #DDF4CB",
":X c #DCFACB",
">X c #D7F7C9",
",X c #DAE9D6",
"<X c #DAF6D7",
"1X c #CFF2CA",
"2X c #E4EDCB",
"3X c #E2F5CB",
"4X c #E4FCCB",
"5X c #E8F9C7",
"6X c #F7FFC8",
"7X c #E5FCD3",
"8X c #EAFED4",
"9X c #E3F4DC",
"0X c #EBF5DD",
"qX c #E5FADC",
"wX c #EBFDDC",
"eX c #E6F3D7",
"rX c #F3FBD3",
"tX c #F4FBDE",
"yX c #F4F8DC",
"uX c #E1EFD8",
"iX c #DEFAE2",
"pX c #D6E2E0",
"aX c #E5F6E5",
"sX c #EAF6E3",
"dX c #E4FBE5",
"fX c #ECFBE2",
"gX c #EBF6EA",
"hX c #E6FBEA",
"jX c #ECFBEC",
"kX c #E2F7EE",
"lX c #F3FCE4",
"zX c #FCFFE4",
"xX c #F2FEEC",
"cX c #F2F7E1",
"vX c #E6FAF3",
"bX c #EDFDF4",
"nX c #ECFFFF",
"mX c #EFFFFF",
"MX c #EEFDFD",
"NX c #EDFEFB",
"BX c #E7F9F9",
"VX c #F1FFF7",
"CX c #F2FEF5",
"ZX c #F3FDF4",
"AX c #F0FFFB",
"SX c #F2FEF9",
"DX c #F1FFFC",
"FX c #F1FFFF",
"GX c #F2FFFF",
"HX c #F3FEFD",
"JX c #F4FFFF",
"KX c #F3FCFA",
"LX c #F9FDFD",
"PX c #F9FFF6",
/* pixels */
"nXnXnXnXnXnXnXnXbXbXNXDXHXHXHXHXnXnXNXHXDXDXNXNXNXNXHXnXMXnXMXHXLXLXLXLXHXnXnXnXnXnXHXHXHXDXKXbXbXvXbXnXnXnXnXnXnXnXHXHXHXHXHXHX",
"nXnXnXnXnXnXnXnXbXbXNXDXHXHXHXHXnXnXHXHXDXDXNXNXNXDXHXHXHXHXHXHXLXLXLXLXHXHXHXHXnXnXHXHXHXDXKXbXbXbXbXNXnXnXnXnXnXnXHXHXHXHXHXDX",
"nXnXnXnXnXnXnXnXNXNXDXDXHXHXHXHXHXHXHXHXDXDXDXbXbXDXHXJXJXHXHXHXLXLXLXKXKXHXHXnXnXnXHXHXDXDXZXZXjXjXbXbXNXnXnXnXnXHXHXHXHXDXDXCX",
"nXnXnXnXnXnXnXnXNXNXDXHXHXHXHXHXHXHXHXHXHXDXDXbXCXCXCXDXHXHXHXHXKXKXKXKXKXKXNXNXHXNXHXHXDXDXDXZXjXjXbXbXbXbXNXDXDXDXDXDXDXCXCXZX",
"nXnXnXnXnXnXHXHXNXNXHXHXJXJXHXHXHXHXHXHXHXDXbXbXZXbXbXjXjXbXbXDXZXZXKXZXDXCXNXbXNXDXDXDXDXCXCXZXxXxXxXxXZXZXCXCXDXDXCXCXCXCXZXbX",
"nXnXnXnXnXnXHXDXNXNXHXHXJXJXHXHXHXHXHXHXDXbXbXjXjXjXaXaXaXhXjXbXZXCXCXCXCXCXCXbXDXNXDXDXDXDXCXZXxXxXxXxXxXZXCXCXCXCXCXCXCXCXbXbX",
"nXnXnXnXHXHXHXHXNXbXDXHXJXJXJXHXnXnXnXNXbXbXjXjXaXaXfXfXfXfXfXsXjXZXZXZXZXZXbXjXbXCXCXCXDXCXCXCXZXxXxXZXZXCXCXSXDXDXDXCXCXCXbXbX",
"nXnXnXnXHXHXHXDXbXbXDXDXJXJXJXHXMXnXnXNXbXjXjXfX9XqXfXfXfXfXqX9XsXsXgXgXgXgXgXaXZXCXCXCXDXCXCXCXCXZXZXZXZXCXSXSXDXDXDXDXDXNXNXNX",
"BXNXnXHXHXHXDXbXbXbXCXCXSXDXKXKXBXBXvXbXjXhXaXeXqXqXwXfXwXfXfXfXfXlXxXxXjXgXgXjXgXgXjXbXbXbXbXbXbXZXSXPXLXSXSXDXJXHXHXnXNXBXBXBX",
"HXHXNXvXvXbXbXbXCXCXSXCXCXCXZXZXHXDXbXbXjXaXfXqXwXwXwX8X8X8X8XwXfXxXxXxXxXlXjXjXjXjXjXjXbXbXbXbXDXKXDXDXDXDXDXDXNXNXNXNXnXnXnXBX",
"nXNXbXbXbXCXSXPXxXjXjXjXgXgXgXjXSXCXbXhXaXfXfXwXwX8X8X8X8X8XwXwXfXlXlXxXxXxXlXjXxXxXjXjXjXjXbXbXDXDXDXbXCXbXDXNXbXvXvXNXnXnXnXBX",
"bXbXbXbXCXZXxXxXxXxXxXxXZXPXPXPXjXjXaXaXeX9XqX8X7X7X8X8X8X8X8X8XwXwXfXfXlXxXlXgXxXxXjXjXjXjXbXbXbXbXbXbXbXbXbXbXbXbXNXNXBXBXvXvX",
"bXbXbXjXaX,X,X,X&X&X&X&X&X,X,X,X9X9X9X9XqXqX7X7X7X7X8X8X8X7X4X3X8XwXfXlXlXlXlXlXlXlXjXjXhXhXbXbXhXhXhXhXhXdXdXiXdXjXCXbXvXkXvXbX",
"SXbXaX,X,X,XuXeXfXfX0XsX0XsXfXsXuXeX9XwXwX8X8X7X8X8X8X8X4X;X%X%X7X8XlXlXlXlXlXlXcXlXlXjXaXaXhXbXdXdXdXiX<X<X1X1X<X<XdXjXaXhXbXbX",
"bXjXaX9X9XsXlXxXfXfXfXfXfXfX0X0X9XqXwXwXwX8X8X7X8X8X4X3X;X%X%X%X;X7XwXwX0X0XcXlXlXxXxXjXaX<XiXiXdXiX<X<X1X1X1X1X=X1X<XqXdXdXdXaX",
"sXsXsXsXsXfXfXwXwXwXcXlXlXcXcXwXwX8X8X8X8X7X7X4X7X4X-X%X%X-X3X3XE.;X8X8X3X2XeXcXlXxXxXjX9X<X<X<XqX<X>X1X=X>X:X:X=X=X=X<XqXdX<X,X",
"tX0X0XcXtX0X0XlXyXlXzXcX0XcXlXtX4XE.W.3X8X8X8X7X:XR.R.-X4X5XW.W.Y.I.G.W.W.J.&XuX0XfXlXfXfXqX7X:XQ.Q.R.!.:X4X:X:X7X:X;X*X*X*X1X<X",
"tXeX2XrXzXzXzXyX0XtXlXtXlXzXzXtX!.I.I.E.5X5X4X;X=X=X>X-XW.Y.Y. X X!.|.5X3X*X,X0X,XeXwXwX7X:X-X!.Q.U.Q.!.4X4X4X4X4X;X-X*X*X=X;X7X",
"W.H.H.E.5XrXrX5XrXrXrXrXrXrX5XW.g.8.8.Y. X5X|.E.!.E.R.I.8.g.z.z.Y.W.W.%XW.J.J.&XfX0XeX;XE.R.Q.Q.!.!.!.4X4X:X-X4X8X8X4X4X!.Q.U.U.",
"Y.W.}.|.|.5X5XrXrXrXrX6X6X6X|.Y.4.4.4.8.8.8.7.7. X XT.g.g.l.z.8. X|.!.3X%X*X*X*X$XJ.W.%X-X-X!.!.U.U.Q.!.R.U.R.W.3X!.!.!.T.T.c.g.",
"5X6X6X X}.E.|.|.E.|.|. X5XXXT.g.4.U J m s i i i 1.Y.`.g.4.4.3.g.I.G.F.F.J.K.K.J.D.D.G.|.5XT.g.=.=.<.g.U.U.U.W.E.5X|.I.g.4.' ' ' ",
"5X X X|.|.5X|.W.I.Y.Y.Y.Y.Y.8.m M M m s k j k g f m J N M N N =.8.G.F.F.W.2X%XK.K.F.8.I.g.=.v q B N =.g.8.8.8.G.Y.I.g.e.U n x c ",
"E.!.|.5X4X8X3XE.E.E.E.W.Y.I.;.d v v a s W w.w.j W f a b N U M M d %.;.-.7.K.H.F.7.*.*.=.N b l l 9 q v N =.*.*.*.d d m M D Z x c ",
"-.U.-X%XW.J.J.,.D.J.G.G.F.-.*.u a e 8 e j w.j 7 k p e e 0 q r v u *.8.8.H.Y.W.H.8.8.z.x.` l , : @ , l ' j.l.z.Y.Y.4.m r w w > > ",
"-.-.$.@.& & & @.+ & y & y -.$.;.0 0 s p 7 p k p t s i a - r v N m 0. XXXXXXXXXXX6Xh.oXs.z > , : , , w ) S.[.^.XXXX].{.3.l 9 @ @ ",
"#.y y @.#.#.#.#.&.&.&.&.:.:.$.-.u a 1.q.k h k 2.2.2.m m a M m a 1.i.`.].]..X.X.X/.oXS.r w < > 2 2 @ : n {.[.^..X.X^.oXB.P b , > ",
",.J.J.$X+X@X@X#X#X@X#X@X&X+X:.D.u 6 i g 7 6 p q.2.f 5 0 a z.[.`.[.{.oXoXoXoXoX.X/.oXb O = = : < 1 1 , > n.A.'.0._.k.].^.3.a 8 9 ",
"D.J.*X&X+X+X@X,X@X#X,X+X+X,XJ.D.d 5 i 2.w.q.q.2.1.i 3 $ 5 4.{.{.{.[.[.'./.).).)./.{.e % w = @ * @ @ > , s.A.oX~.).N.~./.6.a 8 r ",
"F.-.;.-.>.+X+X+X#X+X,X@X&XuX&XK.W.d 5 5 g N.OX~.i 0 a a m i./.h.B.B.N./.).OX).)._.N.e # -   = % = O % 8 {.B.{..X.X/._.{.B.J J 3.",
"I.G.F.F.J.&X,XaX>.#.>.&X,X&XJ.E.F.8.0.0.~..X).J 0 a i.l.[.{.oXV./.^./.)..X).(.(.(.(.1.3 X   - # 4 4 0 s '.9.~.)..X).N.OX/.6.p.h.",
"4.g.I.8.-.-.J.&X$.& #.:.D.D.:.H.H.Y.].Y.0.^.`.4.4.e.c.j.B.V.'.5.N.k.P.(.P.H.L.H.H.}.6XH.8.a $ . 5 7.].H._.)..X)._._.6.N.N.6.M.6.",
"j.i.4.8.8.8.F.F.K.%.D.F.7.W.W.Y.Y.Y.^.k.9.^.[.Z.z.4.e.m 3.6.V.6.9.9.0._.(.P.(.}.P.7.0.8.XX1.$ 3 3 d 7.0._.^.9.9.9.N.1.5.V.h.A.5.",
"P P J 3.5.h.h.9.9.^.].]._.k.~./.9.i.h.h.h.M.A.A.[.M.i.i.h.k.5.1.9.N.B.B.^./.^.N.^.f 5 i 1.a ; o # 3 0 [.l.i.B.h.i.h.j.i.3.3.P P ",
"R Y Y Y T R Y Y b.V.A.V.N.5.5.9.5.p.p.p.h.M.M.v.A.M.p.h.B.^.B.h.M.V.A.B.A.A.A.B.A.N.1.a 6 X o X o # - M v v J j.3.r.i.3.3.i.j.j.",
"b.R T T T Y P J J Y P Y 6.6.6.6.p.p.p.p.p.p.t.t.v.p.p.M.B.'.'.B.M.A.A.B.B.A.A.B.M.6.e $ $ ; X X . # - - # # 4 r.i.a.a.r.3.r.a.a.",
"+. .R R R R T T Y Y Y T 5.v.V.V.v.p.p.p.t.t.t.t.r.r.t.p.M.B.A.A.M.C.M.M.M.M.A.M.h.B.3.s m J b e - - - # # #   e r.s.s.s.r.r.I U ",
" . . . . . .b.t.t.R T R t.b.v.b.v.t.r. .T T  . .E  .t.t.p.M.M.M.p.b.s.t.t.v.M.M.P p.3.J 3.P 0 X # .   # n f.U y.U ` y.y.y.y.r.` ",
"[ [  . . . . . .E E E Y T R 6.t.t. .T L L F [ | [ |  .t.t.p.p.t.t.t.t.r.r.t.p.p.C.v.U S I P r - r w z b s.f.` L I | | I I | a.a.",
"[ [ [ [ [ [  . .[  . . .b.b.v.m.b.X.| E H H ^ ] ] ] [  .t.a.y. .| | | | | t.s.t.T u.t.I b r b p.n L f.u.y.S d.| y.u.y.` L | | | ",
"( ( ( [ [ [ [ [  .X.b.X. . . . .m.m.X.[ [ ] ~ ~ ^ ~ H [  . .| L ] { X.{ X.d.m.u.y.| t.n.S.L n I u.......u.L S.L | ..u...| ....| ",
"~ ( ( ~ H ~ ( } [ ]  . . . .u.m.o.X.} ( ^ ^ Q A A Q [ } X.X.X.| { ) F ] d.d.u.u.] L L | y.u.y.u.| { X.u.u.u.u.u.u.| | u.u...| | ",
"( ( ( ( ( ( ( } } [ [ [ [ ]  .o.} / ( ^ ^ ~ ~ Q ^ ^ ^ ! F F ] ] X.] ) ] { ] _ ) X.| | ....| ` ` ` | ........X.u.` L L ] ..| ` | ",
"~ ~ ~ ~ ( / ( ( { [ ] [ ] ! ] } [ ^ ^ ^ ~ Q A V V Q Q Q A Z F ] { _ _ { { _ { ..{ ] ) { ....| ..` | | | | | ..u.| ` ` | ....| ..",
"~ ~ Q ~ ~ ~ Q A { ^ ^ [ ] ! ] { { / ^ ~ Q V V x c V ~ / ! F ! ] ! ! _ { _ ! _ ..] _ ) ..X.....X.| ......| | ..X.u.....X.u.X.....",
"~ ~ ~ ~ ~ Q A A ^ ^ ^ { ] ! ] { / ^ ^ Q Q V V x c V ^ } / ^ ] { _ _ _ _ ! n Z ! ..........) ) ..u.u.u.u.............| | | ..| | ",
"C ~ / / / Q Q A ^ ^ ^ { ] ! ] { ! Q Q Q Q Q V V C ~ / / ^ ^ [ X.{ { { } _ ! ! { ) ) ..........u...u.u.u.u.......] | ] ` | y.y...",
"V C / / ^ Q ! ^ ^ ! ^ { ] F F ! ^ Q Q Q Q Q C C ~ / / / ^ ! ! _ { _ _ O.O...O.d.) ) _ ...._ ..d.L | y.u.y.y...| | y.| | | u.d.y.",
"c V ~ / Q Q ! { ^ ! ] ] ! Z Z F / / Q Q Q Q Q C Q ~ / } } { ! Z .._ _ { { _ ) ) ........_ ) ) ) n D ` ..y...| | ..u...] | y.y.| ",
"Q Q ! Q Q ! Q Z Z ! { ] ! ] ] ] Q Q Q V A Q / ^ ^ { ^ { o.{ Z ! ) ......o...) ....] ) ......{ d.) ) S | X.] X.] X.) ` X.{ ..X.] ",
"A ^ { { { { / A Z ! ] ! F ! ] ! / / ! Q Q / ^ ! ! { ] { o.X.{ o.] { ` ) { | ) { d.{ { X.X.| ] ] ] ] F { o.{ o.{ F n S ) ! ) ] ) ",
"Q { } ! ! { { A A ! ! ! F ) ] ] { / ! Q ! / ! G ! { ] { o.} } m.{ ..L D | | ] X.u.....X.X.| | ] { ..) X.d.] d...{ L ] u.{ { u.X.",
"^ } / x x Q ^ F ! { ] ! ! ] { { / ^ Q A ! / Q x ! { { { { ! F X.d.u.` L ..u...u.u...| | X.u.u.u.| ..) X...) X.{ X.) { X.] ` { ] ",
"! { ^ x x A ^ ! ] { ] ! ! { { { ^ ! A A ! { ! G ! { } { { Z n F u.d.| | d.d.y.u.u.y.| | X.d.d.u.| X.` X.{ L X.X.X.` { u.{ ] { ] ",
"A ^ / ! Q ^ / / ^ ] ] ! ! { { ! / ^ ! ! ^ } { ! ! { } X.X.! Z ) ..u.| | d.d...u.n.d.y.| y.u...` | u.| u.{ F X.d.X.) ] u.X.u.d...",
"Q ! { { ^ A F ^ ] ] ] ! ] { ] ! { { ] ! ^ { { ] ] { { X.m.X.] X...u.y.| u.u...u.f.f.u.u.u.u.` n ] X.| u.| D u.d.` n n L ` | | D ",
"} ^ ! ^ A x x ! { { { ] { X.{ ! { { ] ! ! ] ] ] X.X.{ ..n.u...d.y.f.a.y.s.u.a.n.y.u.s.d.f.u.L z L { ` ..` S ..d.u.D S ] ..X...D ",
"] { { ! Z G G Z o.] ) { X.] | X.d.) ) ) S ] d.| | | ..u.u.y.u.n.a.f.s.y.a.C.s.L a.u.s.u.s.a.a.u.u...| | ..u.u.u...u.u.u...| ....",
"] ] ] { { { { ] X.X.y.u...L D D | ` | ..| u.n.u.y.y.a.u.a.y.s.n.C.f.| K K | y.r.y.a.s.s.a.a.s.f.y.| ` ` | | ......y.y...| ` ` | ",
"{ ] { X.d.d.X.| L ..d.u...` L S ` y.a.a.f.s.y.s.f.s.s.s.s.r.s.x.s.s.r.` I ` r.r.f.n.n.s.y.y.r.a...| ` ` ` | | | | ....| | ` | | ",
"d.u.u.u.u...| ` n ` s.u.y.s.a.| y.C.s.a.x.r.K I C.j.j.j.j.s.j.C.s.s.f.C.f.y.r.s.C.f.s.s.s.s.y.r.y...| | | | ..y.....| | | ....u.",
"u.u.u.y.| | | y.S r.f.s.s.n.C.x.s.Z.j.s.Z.i.U i.Z.j.j.Z.Z.B.Z.Z.S.C.s.s.s.s.x.S.s.r.r.r.C.C.s.y.y.y.y...| ..y.y.y.y.y.........| ",
"I I ` I L I r.s.a.x.C.j.s.j.C.x.j.j.a.j.[.Z.z.Z.Z.l.l.`.`.Z.B.Z.s.s.s.s.s.s.s.s.s.r.r.r.x.x.r.U y...y.| | | | y.u.y...| | ` L L ",
"I I I I ` r.a.s.C.C.j.x.j.s.s.j.j.3.3.Z.[.`.`.Z.`.l.l.^.`.l.z.z.r.s.s.s.s.j.r.K s.a.s.s.s.a.I K | ....| | | | | | | | | | ` L S ",
"C.f.s.s.x.C.s.a.C.a.a.x.Z.j.j.Z.j.J 3.Z.B.l.l.4.`.l.l.^.^.l.z.i.Z.Z.s.U I s.s.I K I a.s.s.a.r.r.| ..y.y.| | | ..L L L | ..| ` L "
};