/* XPM */
static char *_8ab2b0f8c10480de3eca6e70e5d0b0aOreouzrY1Itp85W2[] = {
/* columns rows colors chars-per-pixel */
"64 64 256 2 ",
"   c #187C01",
".  c #126E07",
"X  c #30750B",
"o  c #334D34",
"O  c #367226",
"+  c #2E5D19",
"@  c #506E1A",
"#  c #435737",
"$  c #51742D",
"%  c #6F7632",
"&  c #63620C",
"*  c #3A534A",
"=  c #34645C",
"-  c #47574A",
";  c #47564E",
":  c #4E6751",
">  c #737551",
",  c #576B64",
"<  c #697A6D",
"1  c #857D33",
"2  c #86765D",
"3  c #1C8B07",
"4  c #378C08",
"5  c #279501",
"6  c #30900D",
"7  c #3AA913",
"8  c #32AA0E",
"9  c #398E2C",
"0  c #3CAE20",
"q  c #499013",
"w  c #55BA19",
"e  c #4EAD17",
"r  c #4F8D30",
"t  c #6E8D33",
"y  c #58B827",
"u  c #4FAE2A",
"i  c #6BB42F",
"p  c #67AC1B",
"a  c #54C617",
"s  c #57C729",
"d  c #77C628",
"f  c #77C93A",
"g  c #6BCC30",
"h  c #6FC61B",
"j  c #759155",
"k  c #58AC4C",
"l  c #71B350",
"z  c #77947B",
"x  c #758A70",
"c  c #76B566",
"v  c #55994F",
"b  c #7CCA47",
"n  c #7AC759",
"m  c #77D34B",
"M  c #7BC767",
"N  c #7ACC73",
"B  c #2F897F",
"V  c #869135",
"C  c #86CB28",
"Z  c #88D736",
"A  c #8AD331",
"S  c #84E435",
"D  c #929252",
"F  c #90B551",
"G  c #B1B256",
"H  c #869576",
"J  c #90B073",
"K  c #ABBA70",
"L  c #A99C69",
"P  c #C5B86C",
"I  c #87CA49",
"U  c #86D648",
"Y  c #96D747",
"T  c #86CA56",
"R  c #97CA57",
"E  c #88D457",
"W  c #98D459",
"Q  c #95CA4A",
"!  c #A5D957",
"~  c #B8D959",
"^  c #AFCE52",
"/  c #92E451",
"(  c #B0E558",
")  c #98D663",
"_  c #8DCE6F",
"`  c #A7CB66",
"'  c #A7D867",
"]  c #ACD776",
"[  c #B8D977",
"{  c #B4CD6D",
"}  c #96E767",
"|  c #A8E666",
" . c #B1E772",
".. c #C6DB54",
"X. c #C8E756",
"o. c #C6D679",
"O. c #CAD371",
"+. c #C7E768",
"@. c #C8E677",
"#. c #D7EB79",
"$. c #D5EE70",
"%. c #E3E77C",
"&. c #E4DF7B",
"*. c #045DB9",
"=. c #105EAB",
"-. c #0A67B8",
";. c #146AB9",
":. c #1874BA",
">. c #0F70B3",
",. c #2678B0",
"<. c #1B6D93",
"1. c #125EC4",
"2. c #0D68C4",
"3. c #1776C6",
"4. c #136FC7",
"5. c #2177CB",
"6. c #607E80",
"7. c #1385BA",
"8. c #308DB6",
"9. c #2CA9B8",
"0. c #7B9988",
"q. c #729289",
"w. c #75AD8E",
"e. c #4797B4",
"r. c #4EB0B7",
"t. c #70AEB3",
"y. c #59A09B",
"u. c #70CBA0",
"i. c #1987C7",
"p. c #158CD3",
"a. c #2897CD",
"s. c #2D95CF",
"d. c #29B7D7",
"f. c #33AECF",
"g. c #3AADE2",
"h. c #1C9EE1",
"j. c #4DB2D2",
"k. c #6EB7CD",
"l. c #4DBAE5",
"z. c #6ABCEF",
"x. c #459ACD",
"c. c #33C4DC",
"v. c #2FC6E1",
"b. c #57C9D6",
"n. c #4FC9D7",
"m. c #71CBD4",
"M. c #4BCAE6",
"N. c #56CFEC",
"B. c #67D7F6",
"V. c #76D5F9",
"C. c #71D0E9",
"Z. c #79E6FC",
"A. c #859787",
"S. c #8D9990",
"D. c #95A68B",
"F. c #8AA797",
"G. c #98A999",
"H. c #90B190",
"J. c #A9B38F",
"K. c #97A9A4",
"L. c #96BBA7",
"P. c #8EB2AD",
"I. c #A8B7A8",
"U. c #B5BCA8",
"Y. c #ABB8B0",
"T. c #8FD38F",
"R. c #B7DA87",
"E. c #B8D799",
"W. c #ABCF8F",
"Q. c #BBE597",
"!. c #B6EB8B",
"~. c #95CAAF",
"^. c #B8C8B7",
"/. c #BAD7B9",
"(. c #ADCBAD",
"). c #B4E9AF",
"_. c #94E699",
"`. c #CAD986",
"'. c #C8D896",
"]. c #D3D88F",
"[. c #C9E586",
"{. c #D6E689",
"}. c #D6E796",
"|. c #DCF39A",
" X c #CEF091",
".X c #E6EB98",
"XX c #E6F89B",
"oX c #F4EF92",
"OX c #C8D5B2",
"+X c #D9E8A7",
"@X c #CAE7B9",
"#X c #CFEFAD",
"$X c #E6EAA6",
"%X c #E8F8A7",
"&X c #F7F8A8",
"*X c #F4EAB8",
"=X c #EAFAB6",
"-X c #F4FDBC",
";X c #F8F8B7",
":X c #EAEBB0",
">X c #E1D79A",
",X c #8CBACF",
"<X c #8ECED3",
"1X c #A8DAD7",
"2X c #B4D1CA",
"3X c #95E2D3",
"4X c #B9E7D5",
"5X c #B0EACD",
"6X c #8ADAE6",
"7X c #99DAE9",
"8X c #8BDBF9",
"9X c #96D9F8",
"0X c #8ECBEB",
"qX c #A6DAE6",
"wX c #B1DBEE",
"eX c #96EAFC",
"rX c #8FEBF5",
"tX c #A8E8E8",
"yX c #B6E7E9",
"uX c #A8E9F9",
"iX c #B6E8F8",
"pX c #A6F7FD",
"aX c #B7F6F9",
"sX c #B5F4EC",
"dX c #C8DAC8",
"fX c #D1D6CA",
"gX c #D5F9CA",
"hX c #C7EAD9",
"jX c #D5F5D7",
"kX c #D0EECF",
"lX c #F8EAC9",
"zX c #EAF8C6",
"xX c #F3FEC3",
"cX c #FCFDC3",
"vX c #FDFECC",
"bX c #F7F7CA",
"nX c #F7EDD2",
"mX c #E9FBD6",
"MX c #FEFDD3",
"NX c #FDFDDC",
"BX c #F7F9D8",
"VX c #E8EBD2",
"CX c #C8EAE9",
"ZX c #D6EAE8",
"AX c #CAF4E8",
"SX c #D7F7EA",
"DX c #C7EBF6",
"FX c #D3EEF9",
"GX c #C8F8FA",
"HX c #D7F9F9",
"JX c #E8FBE8",
"KX c #F9FDE5",
"LX c #E8FBFA",
"PX c #F6FEFA",
"IX c #E3EFED",
"UX c #E3DDCE",
/* pixels */
"( Y I k 8.*.*.-.=.<.,.k.uXuXt.<.=.-.-.-.-.-.-.-.*.2.1.*.4.;.=.;.;.-.-.*.*.2.1.1.2.-.7.7.N.pX0XwXDXyXiXwXwXiX1X5X5X3X<X0Xk.<.e.GX",
"( ! } N 8.-.2.;.:.=.e.9XaXGX0X,.;.-.-.-.-.-.-.*.*.4.4.2.2.-.;.:.;.-.-.-.2.2.1.1.2.-.i.i.l.V.k.qXyXyXiXiXiXiX1X1XtXaXtX<X,Xk.,XiX",
"! Y } N <.*.-.-.i.=.j.pX8X8Xz.,.;.2.;.;.3.3.4.;.3.4.4.2.2.4.3.-.:.;.;.4.4.3.5.5.3.:.a.f.g.x.e.7XwXyXwXqX7X<Xt.k.pXaX<Xt.<X,X,X,X",
"! W } T.<.:.s.s.i.>.j.V.x.,.s.>.3.4.3.3.3.:.:.:.3.-.4.4.2.3.p.-.3.;.>.:.3.4.4.3.i.i.f.f.f.8.e.9XwXyXyXqX7Xm.x.z.8XpX<X<XDXHXDXLX",
"! / } T.<.,.s.g.a.i.s.l.s.>.:.i.3.p.3.3.>.>.:.,.:.;.3.3.-.3.p.3.i.3.3.i.i.3.3.i.g.a.d.d.f.f.l.9XqXwXqX3X7XC.l.V.z.eX7X~.4XHXLXPX",
"Y Y / N B 8.9.f.s.s.i.a.h.p.3.p.p.p.i.i.8.s.x.x.z.s.:.:.3.i.i.>.:.:.7.i.i.7.s.g.l.g.d.d.d.l.B.8X0XqXqX<X6XC.z.V.8XaXGXsXhXhXZXPX",
"Z Z / _ w.e.r.j.f.s.i.i.h.p.p.p.p.p.i.s.j.C.9XuXGXV.8.:.s.a.i.a.7.7.i.i.7.7.a.l.N.g.d.d.d.d.N.V.8X9XuX6X6X6XC.C.8X9XaXHXAXhXZXLX",
"A C / } _.y.y.r.x.s.s.a.p.p.h.h.h.i.i.x.C.uXGXHXHXuXk.8.8.7.f.V.z.z.l.l.f.a.g.B.B.c.d.v.d.d.l.N.C.C.8Xm.m.6X<Xk.<XqXGXAX4XAXSX2X",
"A C Z } _._.u.y.8.f.8.a.a.p.h.h.a.i.s.8X0Xt.HXHXGXqX0X9Xz.8.B.rXeXeXZ.M.M.f.l.B.N.d.d.v.v.d.g.j.l.rXV.k.6XtX~.~.~.5XCXCXCXyX1XAX",
"C C A / _ T.N w.y.8.8.j.f.i.p.h.a.s.e.pX<X1XDXFX2XP.<XqXk.e.rX8XeXeXB.f.f.f.M.Z.B.M.c.c.d.c.N.B.Z.rXb.r.3X5X_.W.E.).hXCXDXyXtXtX",
"C C A Y E _ } T.u.k.j.V.B.f.a.g.a.j.C.GXaXHXSXZXHXCXDXiXtXk.6XrX8XV.j.9.9.9.f.N.B.M.M.M.c.c.M.N.B.N.j.m.~.T.]  .[.'.@XhXyXtXtX3X",
"C C C Z m E / } 5X7X6XeXrXj.a.g.8.r.pXGXGXHXLXLXK.P.CXFXyXt.t.m.k.r.8.f.f.f.n.Z.B.N.N.N.M.c.n.n.n.f.r.u.T._ ' ( @.R./.4X1XtXtX3X",
"d h h d f U U E _.tX7XeXrXj.a.a.j.j.eXuXyXHXLXLXK.q.LXLXt.t.tXtX<Xk.r.f.9.n.B.rXZ.N.M.M.n.n.n.n.N.r.y.u.T.| | ( +.[ ).5X1XtXsX7X",
"g w h h f U S b w.sXaXpXrXb.f.l.pXeXrX7X<XHXCXLX2XP.LXyXt.<XyX<XqX6Xb.r.9.M.V.B.V.N.l.n.n.n.b.b.b.r.u.u.} | ( (  .!.Q.).5XyXaXuX",
"s w w a g f S U T.sXaXpXpXC.l.N.pXpX6X6Xt.qX1XFXP.P.FXwXHXHX<X<X,Xt.r.j.n.B.rXC.C.l.N.B.B.N.b.b.r.u._._.} / / (  .!.Q.W.).4XyXiX",
"y e e e w g d m _.5X<X<XeXC.j.l.b.C.C.m.t.t.qXGX<Xy.wXDXDX1Xt.1XyXt.t.m.rXB.Z.V.V.C.C.Z.Z.m.m.u.3XT._ } / Z A / }  .) _ E.5X1XqX",
"w 8 7 7 7 a g U n T.3X<XC.C.b.b.b.C.b.b.m.m.m.6Xm.t.<XP.1Xt.2X4X4X2Xt.<X6X8XeX8Xm.C.C.8X7XsXT.M _ R W Z Z d h Z Z C A Q ] T.1XqX",
"8 5 7 7 7 w s g m T.3X6X8XeXC.rXC.rXZ.C.C.m.m.6Xk.t.tXtX1Xq.w.0.F.w.F.1X7X7XpXeXpXrX6X7X7X5X_ ' W ! ! A C d h A Z C A Y ] T.5X1X",
"5 3 7 7 7 w w g n _.5XtXuXpXrXrXrXeXeXeXpX7X7XuX7X<XGXGXAX~.(.F.G.F.(.AXqX7XuXuXtX7XuXiXyX5X_ R Q ! ( A d d d Z Z C Z Y  .T.4XqX",
"3 3 8 7 8 e w g n _.sXiXiXuXtXtXaXsXsXaXGXaXiXaX<Xq.q.q.0.F.^.G.F.F.F.F.P.t.<XaXsXsXGXiXyXjX!.W Q Y Z C d d d Y A C A Y ] T.4XyX",
"3 3 7 e e w w i l E.hXDXiXiXaXsX4X4XhXAXAXAXGXFX2X6., * * , S.A.A.A.: o * * = P.hXCXGXyXCXkXR.T ! A d d d i i Y A d C Z ) _ 4XAX",
"    7 w w s y i c ).AXFXFXDXAXhX(./.kXjXkXZXSXSX< : , , , q.^.2X^.^.z - , , ; G.(.(.CXFXSX/._ I | A d d i e q f A d d i l c 5XAX",
"    7 w s g i l T.jXAXFXFXCXAX/.E.E.#X@X@XjXdXL.; ; : : * ; , , < < , - : , ; < D.G.CXZXZX/.W. .E d i i p q X p i p p p i l ).AX",
"3   6 e y g g l ).SXCXZXSXAXjX).#X[.R.E.OX@XH.o : : : : * ; * * * * : - - : - o # x ZXZXZX/._ l i y p e q X X q p e p e i l ).SX",
"9 . 6 5 7 s i c ).jXSXZXZXjXgX#X!.' !.R.W.W.H D.A.F.F.F.F.F.F.F.F.F.F.A.G.K.S.S.H A.Y.HXCXL.c r u 4 e q q X @ X q q q e q k gXjX",
"k . . . 5 u u T.hXSXHXSXhXdX).R.'  . .] _ J H.H.z q.q.q.z q.q.q.F.q.x < 0.K.A.z H (.dXFXHX4X).n 4 4 q q q X $ X q q 4 e 4 r T.5X",
"9 . 3 3 3 6 k gXAXFXHXSXjX@XQ.!.'  .' ' _ J W.T.~.L.L.L.L.~.~.L.P.L.L.0.0.F.0.0.I.jXHXDXCXSXgX!.u e q q r $ j O r X 4 4 4 r c gX",
"= O 9   4   v 5XHXDXFXSXgX#XQ. X .| W ] _ J T.(.H.F.F.L.L.L.H.F.P.L.~.0.0.K.S.0./.jXHXHXHXSX).n y i q q $ t j O $ X 4 4 u k c gX",
"0.: O . E _ ).HXHXFXFXSXgXQ.R. .! W | ) F j j W.L.L.L.L.~.~.~.L.P.~.~.q.q.F.0.F.dXjXAXCXHXhX_ i u y q q $ j j # O X 7 6 y n c ).",
"LX/.W.l !.!.gXSXFXFXHXLXgXQ.] | | I W F l J j j x x x x x z z z 0.0.0.z P.2XK.0.L.jXLXHXCX(.c l u e q q t J j # + . 6 6 u k v _.",
"IXjX#X!.!.R.@XSXFXFXLXJX#XR.' | ! I i i l j : # # - - - - - - : : o o - F.2X0.: : F.SXLXHX~.r u e 4 4 @ $ J > o + . 3 5 6 9 v ).",
"JXkXW. X] Q./.hXLXLXSXkXE.' W W F F t F j + # # o - ; ; ; - - - o # - o o o o * - o , Y.SX(.$ r u 4 X X $ J.> $ O .   3 3 3 k gX",
"mXE.W.W.W.'.@XkXJXJX@X'.] ' ! Q V V t t j J.H D.A.S.A.S.A.S.S.x x A.H x z z x 0.0.0.q.P.ZX2XG.J r 9 O r $ J.j @ @ X   0   X c ).",
"#XJ ] E.E.E.E.@XBXzX#X XR ' ! i t % % % D J.D.x A.A.q.A.z S.A.x z D.D.H A.H z A.F.2X2XZXLXIXZXkXv O r $ j H D @ $ X X X X 9 O ).",
"=XJ j J J J.J.E.zX#XE.Q.F ! ! q @ j j # : J.kXG.K.K.F.K.G.^.I.D.S.I.I.D.I.I.I.Y.Y.ZXLXPXLXLXPXJXT.c E.J D.> D % F r r r O r v kX",
"BXE.J.J J E.OX@XmX@XW.Q.` R F t $ D.J.< J.fXJXY.K.K.K.Y.I.OXJ.H D.^.U.G.G.G.G.G.2XZXLXLXIXIXPXjX#XQ.zXzXJ.2 > H +XW.J W.W.W.gXJX",
"jXmXJX/.W.kXKXKXKXjXJ.W.J j t j OXfXG.S.PXJXfX2X^.Y.^.^.^.dXG.x x I.^.I.U.U.I.Y.fXZXIXPXJXJXPXmX!.] R.:XL 2 > J.J.'.K W.mXNXVXVX",
"dXJXKXOX(.mXKXmXJXjXH.D.J x j W.KXPXI.A.IXPXY.dXdX2XdXdX^.kXI.A.< I.OXOXfXVXUXZXfXLXPXPXPXJXJXgXR.' R.'.J.> 2 lXJ.J.zX+XmXNXVXVX",
"mXmXmX@X@XmXBXmXmXKXOXOX(.(.OXmXVXPXUXS.fXPXD.D.D.H D.A.A.^.D.A.D.^.^.G.I.U.I.I.Y.LXPXJXJXmXgXQ. . . XR.R.% > NXE.J vX=XE.+XnX:X",
"+X'.=X=X%X=X=XxXxXNXmXmX(.OXzXmXKXBXOXS.^.JXx x j > x j x /.(.(.I.^.G.< < x x < S.IXJXjXJXmX#XW.E / E ' R.j $ =X'.E.#X%X=X+X=X'.",
"{.#.$.$.$.#.#.{.XX%X-X-X'.W.}.=X=XMXOXJ.@XOXJ D j J j j H ^.I.K.F.^.(.D.^.^.Y.G.0.JXJXJXgX).#X} U m g U W t t Q.!. X|.|. X|.}.` ",
"$.X.X.X.X.X.$.$.#.{.|.|.`.[  X|.%X=X}.`.+X}.{ { ` ] ` J J.dXY.Y.K.^.2X(.jXIXZX2XF.jXSXJX_.v n m s a a g f f E !.!. . . X X!. .' ",
"X.X.............#.O.{.|.}.}.XXXX|.{.{.}.|.{.o.[.@.[.[.'.OXkXY.Y.K.I.2X^.kXIXIX^.F.jXSXgX_ 9 l m s a a s s g / } } } } } | | W I ",
"+.X...........O.O.{ o.`.[.{.{.[.#.+.@.{.#.@.@.@.+.+.@.[.+XOXI.Y.Y.(.dXdXkXJXJXY.0.JXgX_ r 6 u 8 7 8 8 7 a s g g m / m f U U Z Z ",
"{.{.{.{.{.{.{.{.`.`.`.].`.o.[ { +.+.+.@.+.+.+.~ X.~ +.@.}.OXI.Y.Y.I.dXfXVXJXKX^.x JX).r 9 0 7 5 8 8 8 8 s s w s s s s m U g g / ",
"%X$X$X$X$X$X$X$X$X:X$X}.}.[.o.@.+.+.+.+.~ +.+.~ X.~ +.O.}.'.I.U.I.G.dXfXUXVXKX^.x JXE.O 9 e 8 8 8 8 8 8 0 8 8 7 7 u y y y e e s ",
"-X=X=X:X:X$X$X$X$X$X}.o.o.+...+.~ ~ +.+.+.+.~ ( X.~ X.~ }.'.U.U.^.^.UXfXUXVXKXOXD.@XT.r 9 6 5 3 6 3 3 3 5 8 8 8 5 u g y e y w 7 ",
"MXvXcX;X;X*X*X:X*X;X>Xo.O.~ ^ ~ ~ ~ ~ @.@.~ ^ +.X.~ +.{ |.+XOXU.^.^.fXOXfXUXVXOXOX@XW.J T E m y N k k u 6 u y 6 q q i I b f b g ",
"vXbXcXvX*X*X*XlX*X*X*X*X$X].`.o.{ { { { { { { { { F F { '.'.W.J.U.^.OXVXKXKXKXKXNXmXzX#X#X X X X#X#XQ.W.] R.] ` F F F ` ] F ' R ",
"cX*X;XcX*X*X*X*XlXlXlXnXbXvXvXvX-X;X%X.X}.{.`.`.`.{ { '.+X:X:XzXUXUXVXKXKXKXKXKXNXMXxXxX=X=X=X=X=XxXzX+X+X=X-X%X%X%X|.|.%X|.%XXX",
">X`..X&X&X;X*X*X*XlXlXlXlXbXMXMXvXvXvXcX-X-XcXcX-X-X-XxXvXvXNXKXBXBXBXNXKXKXNXKXNXMXMXvXcXcX-XcXxXMXMXvXxXxXxXxX-X%X%X|.{.%XXX|.",
"D 1 K `.].$X;X;XbXlXnXnXnXnXbXBXMXMXvXvXvXvXvXvXvXMXMXNXMXnXnXBXBXnXnXBXBXBXNXNXMXMXvXvXvXvXcXvXvXvXMXvXxX+X+X}.}.'.}.[ F [.[ [ ",
"G V O.o.o.o.].].lXlXnXnXnXVXzXmXNXNXNXMXMXbXbXbXbXbXBXMXNXBXNXNXMXMXMXMXMXMXMXNXMXMXMXMXvXvXvXvXMXvXvXMXxX+X'.R.'.'.}.K t { `.[.",
"G V {.o.o.{ o.`.*XlXnXnXnXVXzXzXnXnXnXMXMXMXMXMXMXMXMXBXNXNXKXNXMXvXvXMXMXbXbXbXMXvXvXvXvXvXcXcXvXvXvXvXvXxX:X+X}.}.].F @ F `.{.",
"% & G O.{.{..X$XvXMXNXNXMXBXbXbXMXMXMXvXvXxXxXxXvXvXxXzXzXzXzX=XcX-X-XcXcX-X;X-XcXcXcXcXcXcXcXcXcXcXcXcXvXvXcX;X$X$X].D & t o.o.",
"D & {..X&X&X&X:XvXvXMXMXvXvXcXcXxXxXxXxXxX-X-X-X%X=X=X-X-XxXxX-X%X%X%X=X-X-X-XcX-X-X-X-X-X-XcXcX;XvXcX;X*X;XcXcX;X;X&XK % t ].O.",
"P V oX&X{.&X.X&X-XcX;X;X*X;X;X&X%X%X}.[.[ ] ] ' ` ` ` ' ] ] ] ] ] [ [ [ [ ] [ `.|.|.%X-X-X=X=X-X;X;X;X;X*X*X*X*X$X;X;Xo.1 P .XO.",
"L 1 O..X{.XX.X&X$X&X;X;X&X.X{.o.` ` R R R R R R R R R R R R R R R R ) ' ' ` ' [ ` ` ] [ [. X|.%X&X&X;X;X;X;X*X&X;X;X&XP % P &X&X",
"P G P o.o.{.{..X%X.X.X].o.{ ^ Q Q Q Q I I I I I I I I I I I I I I I T R W W ' ' ' ' ` ` ` ` { [ {.{..X$X&X&X;X;X$X&X&XoX&.oX&XoX",
"P P G O.o.{.|.XX.X{.o.{ G F Q Q Q I I I I I b b b b b I I I I I T T T T W W W W W W ' ' ' ' ' [ ` { o.`.{..X$X&X&X&X&X&X&X&XoXoX",
"G G G O.#.o.[ { { ` ` ` R R Q Q I I I I I I b m b b b n T T T E T n n T E W W E R W W ' ' ' ' ' ' ' ' { [ @.{.{..XXXoXoXoX&.&.oX",
"G O.^ ~ ~ ^ R F R R ` R R Q Y I E E E E E T n n n n n n n n n n n n n T E ) W W | ' W W R W R R | ' ' ' ' [ @.[.`.{.{..XoX%.&.&.",
"G ^ ~ ^ ^ ~ | ' ' ) W R T E U U T T T n n n l l M M M M M M M M _ _ _ _ _ ) ) ) W W R R R W ' W W W W W ! '  .[ {.@.@.O.#.%.%.$.",
"....$.+.~ ( ! W R R ) ) ) E E E T T T M M M M M N N N N N _ _ _ M _ _ _ _ E ) ) ) W W R R W R R I U I I W W ' ' { o.{.O.+.O.%.+."
};