/* XPM */
static char *e991182c57d24d08eddb9e1c379dcc9e9BUSothikf29PVtc[] = {
/* columns rows colors chars-per-pixel */
"64 64 256 2 ",
"   c #6D714B",
".  c #7F7261",
"X  c #5D7B21",
"o  c #877769",
"O  c #987D79",
"+  c #8A756E",
"@  c #837F5C",
"#  c #3DA302",
"$  c #4F9912",
"%  c #5B9815",
"&  c #52930B",
"*  c #64980B",
"=  c #67991B",
"-  c #729C1A",
";  c #60880B",
":  c #4CB407",
">  c #52B90A",
",  c #57B715",
"<  c #4EA80F",
"1  c #7CAC0C",
"2  c #6BA918",
"3  c #77A91B",
"4  c #78B61C",
"5  c #6BB110",
"6  c #6A9825",
"7  c #729D28",
"8  c #789936",
"9  c #708A37",
"0  c #6AA425",
"q  c #7BA52C",
"w  c #74AC2C",
"e  c #7BAD2D",
"r  c #76A824",
"t  c #66B525",
"y  c #79B525",
"u  c #7BB32C",
"i  c #78B726",
"p  c #7AA934",
"a  c #7CB332",
"s  c #7AB935",
"d  c #69A333",
"f  c #579824",
"g  c #5CC615",
"h  c #68C71A",
"j  c #73CC2C",
"k  c #74894A",
"l  c #79914F",
"z  c #77A443",
"x  c #769367",
"c  c #85B319",
"v  c #81AF15",
"b  c #84AA2A",
"n  c #87B828",
"m  c #87AA39",
"M  c #83BC34",
"N  c #85B439",
"B  c #84BB3B",
"V  c #8ABD3D",
"C  c #87B436",
"Z  c #93BC3B",
"A  c #93B52F",
"S  c #889F37",
"D  c #88C42A",
"F  c #8AC539",
"G  c #94C63B",
"H  c #92CC33",
"J  c #99DA3D",
"K  c #86984A",
"L  c #888A5B",
"P  c #889657",
"I  c #85A847",
"U  c #89B845",
"Y  c #93BB45",
"T  c #95B94B",
"R  c #95AA59",
"E  c #8DB355",
"W  c #97B857",
"Q  c #8DAA50",
"!  c #958B6A",
"~  c #949769",
"^  c #8B8373",
"/  c #938B7B",
"(  c #978677",
")  c #999777",
"_  c #899168",
"`  c #A29A79",
"'  c #A18C7E",
"]  c #96A467",
"[  c #9AB964",
"{  c #99B170",
"}  c #A2AB6B",
"|  c #A4BB67",
" . c #A7A47B",
".. c #A5B975",
"X. c #B0B37E",
"o. c #A1B752",
"O. c #8CC242",
"+. c #85C048",
"@. c #95C44A",
"#. c #96CB4A",
"$. c #98C847",
"%. c #9CD243",
"&. c #9BD549",
"*. c #9AC856",
"=. c #9DD557",
"-. c #8BD050",
";. c #A3CD4A",
":. c #A4D64B",
">. c #A5CA56",
",. c #A2D453",
"<. c #AADC54",
"1. c #ACD45C",
"2. c #A8D959",
"3. c #B2DB5E",
"4. c #B3DB56",
"5. c #ACE154",
"6. c #B4E55A",
"7. c #9DC564",
"8. c #A8C768",
"9. c #A8D865",
"0. c #B2DB63",
"q. c #B6DA69",
"w. c #A9C676",
"e. c #B3C878",
"r. c #ADD573",
"t. c #B8D976",
"y. c #ABE469",
"u. c #B5E365",
"i. c #BBE46B",
"p. c #B9E768",
"a. c #BAE575",
"s. c #BCF964",
"d. c #C2D97A",
"f. c #C2E76D",
"g. c #C3E96E",
"h. c #C2EC65",
"j. c #C9F36D",
"k. c #C5EC73",
"l. c #C9EE74",
"z. c #C5EC7A",
"x. c #C9EE7B",
"c. c #C5E37A",
"v. c #C9F176",
"b. c #CDF47C",
"n. c #CEFA7C",
"m. c #C7F177",
"M. c #D0F67E",
"N. c #D1F97E",
"B. c #947E80",
"V. c #988A84",
"C. c #9C9487",
"Z. c #8D8780",
"A. c #A38B8A",
"S. c #A89788",
"D. c #AA9C95",
"F. c #B69A95",
"G. c #9BA682",
"H. c #AAA787",
"J. c #B6BA8B",
"K. c #ABA797",
"L. c #B9A698",
"P. c #B9B598",
"I. c #B0AE85",
"U. c #B8A7A2",
"Y. c #B7B2A6",
"T. c #C39C9D",
"R. c #C2A79C",
"E. c #C3B59C",
"W. c #C7B9A9",
"Q. c #C5B6B0",
"!. c #C09CA0",
"~. c #B9C987",
"^. c #B8D785",
"/. c #B5C88F",
"(. c #B7D4B0",
"). c #C8D897",
"_. c #C3D38A",
"`. c #C8E887",
"'. c #CDF482",
"]. c #CEF984",
"[. c #CEF589",
"{. c #C8F385",
"}. c #D1F682",
"|. c #D3FA84",
" X c #D3F68C",
".X c #D5FB8A",
"XX c #D9FE8D",
"oX c #D8FD87",
"OX c #CCEC94",
"+X c #CBE496",
"@X c #D4EA98",
"#X c #CFF791",
"$X c #DAF593",
"%X c #D5FA93",
"&X c #DBFD94",
"*X c #DDFE9B",
"=X c #D6F699",
"-X c #D0EB8A",
";X c #E2FE9D",
":X c #E3FB98",
">X c #C9C7AA",
",X c #CCD8A7",
"<X c #D5DAA9",
"1X c #D4CBB8",
"2X c #D7D9B6",
"3X c #CCCEB4",
"4X c #CAE4A6",
"5X c #D7E6A7",
"6X c #DEFDA2",
"7X c #DEFDAC",
"8X c #DCF4A8",
"9X c #D8E7B6",
"0X c #DEF8B5",
"qX c #CDE4B6",
"wX c #E2ECA8",
"eX c #E2FEA4",
"rX c #E9FFA6",
"tX c #E3FEAA",
"yX c #E9FFAA",
"uX c #E4F4AC",
"iX c #E5EDBA",
"pX c #E4FEB4",
"aX c #E9FEB4",
"sX c #E5FEBA",
"dX c #ECFEBB",
"fX c #E5F4B9",
"gX c #F3FFBB",
"hX c #F3FFB2",
"jX c #F0FDAB",
"kX c #E1DFB8",
"lX c #DAD4C5",
"zX c #E4DAC3",
"xX c #DAE4C6",
"cX c #DBF1D0",
"vX c #E5E8C6",
"bX c #EBF4C4",
"nX c #ECFDC3",
"mX c #ECFDCC",
"MX c #E8F8C8",
"NX c #F3FEC4",
"BX c #F3FECB",
"VX c #FBFFCC",
"CX c #F4F6C7",
"ZX c #EAECD6",
"AX c #EAF7D7",
"SX c #F4FDD3",
"DX c #FCFFD4",
"FX c #F6FCDB",
"GX c #FCFEDB",
"HX c #F6F4D6",
"JX c #F3E6D1",
"KX c #ECFBE7",
"LX c #FEFDE3",
"PX c #FCFDEC",
"IX c #F8F8E6",
"UX c #F9FEF4",
/* pixels */
"k { ,X) >XY.V.+ A.( D.IXPXQ.V.) m c G n 6.n n %.$.m P   Y./ o >X. /   K I m m I l 9XKXKXcX(.x x L ~  .@ ) FXZXxXxXqX4X4X@X=X;X;X",
"{ 4XGXP.Y.D.V.B.S.S.U.PXlXZ.C.H.I n Z Z 6.D c n b m ]   K.Q.o JXD./ L J.] K l k /.KXUXUXKXAX(.qXP.) J.` P.ZXxXvXmXMXnXpXtXeXeX;X",
").9XMXK./ V.V.A.U.S.W.1X^ ^ U.2XW m q Z <.D 1 n b W ).) V.lX^ lXU.V./ ZXxX9XxXxXcXUXUXKXKXKXmXFX3X! P.H.<XCXiXBXfX0X0X7XtX6X;X;X",
"NXnXbXP.o + O A.L.E.S.S.^ K.PXGX).| m m ;.A v H m 8.BXxX/ Q.S.D.D.Y.K.ZXUXPXAXPXKXZXxXxXqXqX4X9X>Xo P.) <XVXdXgXpXtX8X=X@XOXOXOX",
"iXbXHXzX+ + O A.R.F.L.A.P.HXIXLXSX4Xw.m Z n A A T @XGXUXK.D.U./ / D./ 3XxX9X,X9X9X5X5X8XuXuXaXBXW.o P.) <XdXuX8X6X=XOXOX`.`.+X+X",
"iXkXvXzX( + O F.F.F.S.E.zXzXvXxXZXvX).Q m b A A >.gXAXZXQ.O D.V.S.( ) 2XvX9XNXdXgXhXhXjXhXuXuXiXP.( L.` 5XuX=X=X@XOXOX+X+X+X+X+X",
"GXHXJXJX' o O F.R.' W.1XvXvX2XvXxXvX9X~.W S m o.e.wX2X1XlXC.C.S.L.( / >XvX<XiX4X@X@XwXwXgXfXdXCXA.A.L.` <XwX8XeXtXtXtX8X5X@X+X).",
"HXGXLXLXS.o ( R.L.S.zXIXHXZXFXHXHXZXbXVX~.K K _.NXNXSXHXLX1XH.C.D.A.( P.LXSXDXBXCXBXVXCXGXCXiXvXO F.R.) ,X5X5X+X+X).+X4X5X8XwXuX",
"GXCXHXLX) ! ( W.S.A.IXLXLXGXFXGXGXDXDXGXVXbXiXbXDXGXCXGXGX2X~ ! K.S.( H.3XvXLXIXPXIXUXLXLXFXDXGXO !.L.S.DXDXnXnXMXMXbXiX5X5XwX).",
"DXGXGX2XL ! S.E.S.K.LXHXIXLXLXGXDXDXDXGXGXFXIXLXGXbXDXNXiX/.J._ H.` !  ._.,XFXFXIXIXUXIXIXLXDXvXO T.L.H.GXDXBXBXBXSXGXGXGXVXVXgX",
"fXdXNXJ.L L  .P.` >XLXLXLXHXGXSXDXDXDXSXFXIXPXPXGXSXVXgXe.~./.~ ` ! ! } X.e.aXVXBX9XvXZXLXGXCX2X+ T.L.) ,X5X9XSXSXFXGXLXLXDXCXVX",
"| | e.| [ P ~ X.X.<XHXHXLXGXGXGXDXDXGXSXHXIXPXIXFXSXgXe._.w...P ! ! ! ] | | ;XhXyX_.~.,XCXDXBX>X+ R.H.L ....~.5XMXGXLXGXLXDXCXDX",
"W Q W 8.8.W K } P <XGXFXGXSXGXDXSXDXDXBXSXLXPXLXLXDX@X| `.r.[ ] / A.) ~ } | $X$Xd.d.d.e.).MXSXI.O R. .P e.r.*.w.^.fXLXFXGXLXSXGX",
"@.@.Y 1.>.0.Q R K 5XDXbXbXBXDXBXFXFXSXBXBXSXSXAXGXfXw.8.W r.W ] / A.C.) } { `.t.>.0.c.t.8.~.4X) ( R. .P t.y.#.9.Q ^.DXGXFXLXSXGX",
"u M M G G i.>.W e.~.I...).BXVXSXIXIXBXNXNXdXbXbXBX^.[ E T W E l ! V.C.C.G.] ^.t.T >.f.l.>.Q e.] ! E.] 9 Y #.F y.p 8.NXGXGXLXFXFX",
"#.&.:.%.G 6.;.m r.| | ....w.~.5XIXAXmXBXNXgXnXNXBX5X[ 8.W t.E P ^ ( V.S.G._ ^.a.*.4.j.j.;.T t.R ) P.P X a F s &.7 E 0XBXmXGXSXFX",
"2.2.<.5.5.<.:.:.3.3.1.a.W E W @XMXLXSXBXBXBXDXbXnXDXdXdXdXsX.._ V.^ C.H.] l 8.=.G p.h.6.g.Y T | L  .] 9 8 p 6 6 f w.0XSXSXAXBXSX",
"2.,.:.<.<.%.%.<.<.:.:.1.*.*.8.t.fXSXmXSXSXmXSXSXBXnXmXBXiX] k ~ ) ^ k k E 7.=.F &.s.6.s.p.=.B 7.P J.} K 8.*.p 8.^.4XMXmXSXDXCXiX",
"<.&.G G &.%.G :.<.:.<.,.,.1.9.7.4XnXmXmXBXMXmXSXBXfXMX<X,Xl   l l l k f d t t j , j H J F j t =.R ] k 8 q.q.*.%XaXsXnXmXmXBXBXNX",
":.%.n 4 G 5.%.M %.&.<.,.@.=.=.T ^.sXnXsXnXmXmXnXBXnXBX5XnX)._.w.r.z d 0 j j g h : : h > h , , -.E R Q T 1.i.0.i.7.w.+XsXnXnXNXNX",
"J H y 3 J 5.G n r M $.,.u V O.@.[ +XpXpXsXnXsXnXsX0XsXfXsX+X).^.9.& $ < , > > g g : > # : : # < f 8.`.1.;.u.,.N U I [ ^.8XdXgXaX",
"D D 4 n :.%.M F r u M ,.r u a @.U [ OXaXsXsXpXnXnXnXnXdXaX@X_.t.a.% & & < , , : > g > > < , < $ ; >.i.,.6.<.r e =.*.E 7.@XdXgXaX",
"4 D 4 D :.F y F F w u #.w u u N m m t.tXtXpXpXsX0XpXpX7XtXtXeX`.i.=.#.s 2 & t j $ t t t $ $ 0 s 9.q.0.3.j.%.* 0 6 U E [ @XdXaXtX",
"5 4 4 4 &.%.u u #.0 0 M a M F r q 8 t.*X=XaXpX7XsX0XsXtXtX=XeX$X}..Xa.y.9.s -.y.9.y.y.9.=.+.y.a.a.q.i.p.5.&.w % 0 *.E Q `.aXtXaX",
"D D 4 D F M F a e V V r = 3 r r 1.q.z.%X6X7XpX0XpXpXpXtXeXeX;X;X:X$X-X`.a.a.r.r.t.r.t.t.a.a.a.a.{.z.i.u.2.,.U p 6 6 z 7.OXaXdXpX",
"4 4 4 n M M M B = 0 e B O.#.:.<.i.z.'.&X6XtXtX7X7X7X7XtX6X*X*X;X:X$X@XOXOXOXOX-Xt.t.t.t.t.a.`.[. X[.z.a.a.a.a.9.r.r.^.OX7XsXsXpX",
"D 4 2 * y M r e N N #.u.p.u.6.u.m.'..X*XeXeX7X7X7X7XtXtXeXeX*X;X:X=X=X=X=X=X=X=X-X`.c.c.`.[.%X*X[.%X%X#X#X#X%X%X*X6X7XpXpXsXsXpX",
"4 3 3 3 :.p.2.p.u.1.3.i.k.i.m..X'.[.%X*XeXeXtX7XtXtXtXtXeXeXeXeX;X;X*X=X=X=X=X%X$X$X$X$X%X&X*X*X=X6X6X6X6X6X6X6X6X7XtXaXpXpXsXsX",
"%.<.p.4.6.u.;.i.>.0.v.XXXX|.b.z. X%X*X*XeXeXtX7XtXtXeXeXeXeXeXeX*X*X*X6X6X6X6X*X*X;X;X;X*X6X6X6XaXaXtX7X7XtXaXaXtXtXpXaXpXsXsXsX",
"<.p.i.3.3.0.3.k.v.}.}.x.z.'. X X*X*X6X6XeX6X6X6X6X6X6X6X6X6X6X6X6X6X6X6X6X6X6XeXeXeXeX6X6X7X7X7XtXtX7XpXsXpXpXpXaXaXtXtXaXpXsXsX",
"i.i.3.3.i.k.N.M.b.}.|.}. X&X*X*X6XtXeX6XeXeXeX6X6X6X6X6X6X6X6X6XtXeXeX6X6X6X6X6XtXyXtXtX0XpXsXsX8X8XpXdXnXsXpXpXpXtXtXtXpXpXsXsX",
"1.u.u.l.l.l.oXx.|.}. X X&X*X*X6X6X6X6X6XeXeXeXeX6X6X6X6X6X6X6XeXeXeXtXtXtXtXtXtXeXtXaXtXpXpX0X0XsXaXpXpXpXpXpXdXaXaXaXaXtXpXpXsX",
"k.k.v.].'.'.'. X%X%X*X*XeXtXtXtXeXeXeXeXeXeXeXeX*X;X;XeXeXeXeXeXeXeXtXtXeXtXtXtXtXtXtXtXtXtXtXtXtXtXtXtXtXtXyXtXtXtXtXtXtXtXpXaX",
"b.b.b.}.'.{.'. X*X*X6XeXtXtXtXtXeXeXeXeXeXeXeXeXeXeXeXeXeXeXeXeXeXeXeXeXtXeXtXtXtXtXeXeXeXeXeXeXeXeXeXeXeXeXeXeXeXtXtXtXtXtXtXtX",
"b.b.b.b.'.'. X&X;X;XeXeXeXtXtXtXeX6XeXeXeXeXeXeXeXeXeXeXeXeXeXeXeXeXeXeXtXeXeXeXeXeXeXeXeXeXeXeXeXeXeXeXeXeXeXeXeXeXeXeXeX6XtXtX",
"m.m.v.v.b.'. X*X;X;XeXeXeXeXeXeXeX6X6XeX6X6XeXeXeXeXeXeXeXeXeXeXeXeXeXeXtXtXtXtXtXeXeXeXeXeX;X;XeXeXeXeXrXeXeX;XeXeXeXeX*X*X*X6X",
"b.b.v.v.x.x.}.%X*X*X;XeXeXeXeXeXeX6X6X6X6XeXeXeXeXeXeXeXeXeXeXeXeXeXeXeXeXtXtXtXtXtXeXeXeXeXeX;X;X;XeXeXeXeX;X*X*X*X*X*X$X$X*X*X",
"v.v.m.b.{.{. X&X*X*X;XeXeXeXeXeX6X6X6X6X6X6XeXeXeXeXeXeXeXeXeXeXeX;X*X6XeXtXtXtXtXyXrXeXeX;X;X;X:X*X:X;X;X;X*X*X*X*X*X$X%X X%X&X",
"x.x.b.'. X X$X*X*X*X*XeXeXeXeXeX6X*X6X6X6X6X6X6XeXeXeXeXeXeXeXeXeXeX;XeXeXyXyXeXyXrXrXrXeX;X;X&X&X$X$X&X*X*X*X*X*X&X&X X X X X X",
"[.[. X X X X%X*X;X;XeXeXeXeXeX6X*X*X*X*X6X6X*X6XeXeXeXeXeXeXtXeXyXrXeXeXrXyXyXrXrXrXrXrX;X;X:X&X&X%X%X&X*X*X;X:X&X&XXX X|.}.|. X",
" X X#X%X%X*X*X*X6X6XeXeX6X6X6X6X*X*X*X*X*X*X*X*X*X*XeXeXeXeXeXeXeX;XeXeXeXeXeXeXrXrXeXeX;X;X&X$X%X%X%X&X&X&X&XXXXXXXXX.X|.}.oX.X",
"%X%X$X*X*X*X6X6X6X6XeXeX6X6X6X6X*X*X*X*X*X*X*X*X*X*X*X*X;X;X;XeX;X;X;X;XeXeXeXeX;X$X$X;X;X&X$X$X X X XXX&XXXXXXXXXXX.X.XoXoXoXoX",
"*X*X*X*X*X6X6XeX*X6X*X6X6X6X*X*X*X&X%X&X*X*X*X&X*X*X*X*X*X*X*X;X*X*X;X;X*X*X*X*X*X-X-X&X;X%X X$X}.}.|. XXXXXXXXXXX.XoX|.oXoXoXoX",
"*X*X*X*X*X*X*X*X*X*X*X*X*X&X&X%X&X.X X.X&X*X&X&X*X*X*X*X*X*X*X*X&X*X*X*X*X*X*X*X;X X X*X;XXX XXX'.}.}.|.XXXXoX|..X|.|.|.|.}.|.oX",
"*X*X*X*X*X&X&X&X&X&X&X&X&X X X XXX X}..XXX&X&XXX*X*X*X*X*X*X*X*X*X*X*X*X*X*X*X*X*X*X*X&X*X&X&X.X}.}.}.}.oXoX}.].|.}.|.|.].'.]..X",
":X&X&XXX X X X X|.|. XoX|.|.}.}.|.|.}.|..XXXXXXX&X*X*X*X*X*X*X*X&X&X*X*X*X*X*X*X%X*X;X&X&X*X&X X}.b.n.N.}.}.n.n.|.n.].[.[.'.]..X",
"XXXXoX|.}.M.M.}.v.b.M.N.N.N.M.M.}.}.}.}.|..XXXXXXXXX&X&X&X&X&X&X&X&X&X&X*X*X*X*X&X&X&X%X&X&X.X|.b.b.v.b.b.b.b.b.}.m.z.b.|.[.'.[.",
"oXoX}.b.v.v.v.b.k.k.v.b.N.N.N.M.b.}.}.}.|.|.XXXXXXXX&X&X%X%X%X%X&X&X&X&X&X&X&X&X;X%X.XXX&X.X}.M.v.v.k.k.v.b.b.'.'.a.q.z.|.].'.{.",
"oX}.n.N.v.b.g.k.g.k.l.l.b.N.N.b.'.}.|.'.'.'. X&X&X&X&X&X&X&X*X*X&X&X&X&X&X&X&XXXXXXXoX|.}.n.n.n.j.h.h.j.k.k.l.}.z.a.m a.'.&X Xa.",
"v.b.b.m.k.v.k.l.g.k.l.l.b.M.M.b.x.b.'.'.'. X X&X&X&X&X&X&X&X*X*X&X&X&X&X&XXXXXXX.X|.N.n.n.n.n.v.j.h.h.u.i.l.v.i.>.*.6 q.z.9.>.T ",
"m.v.v.l.v.l.v.v.l.l.v.v.b.b.M.v.x.b.}.|.|..X.XXX&X&X&X&X&X&X&X&X&X&X&X&XXX.X.XoX}.b.v.b.b.n.v.k.g.u.n.k.m.l.].0.7 q N N >.0.m Y ",
"0.1.0.k.}.l.b.v.b.b.b.b.b.M.M.v.M.}.|..X.X.X.X.XXX&X&X&X&X&X&X&XXXXX.X.X.X}.b.b.b.v.l.k.g.k.k.k.i.@.0.i.{.z.'.0.m Y 0.q Z $.r Z ",
"C q m u.}.v.b.b.M.b.b.M.M.b.b.v.|.|.|.|.|..X.XXX.X.XXX&X&X&X&XXX.X.XoX|.'.v.l.k.k.k.k.g.f.g.l.b.q.7 p U a.{.[.*.Y 1.V C $.r G $.",
"q 7 - q.}.b.b.b.b.b.b.b.b.b.l.l.M.b.b.b.}.|.|..X|. X X.X.X.X X X}.N.b.b.v.l.k.f.f.k.k.g.f.k.v.b.*.8 p U a.[.'.Y V #.e e ;.G <.;.",
"m C 7 u.l.}.}.'.b.x.x.b.M.b.l.v.b.b.b.b.b.b.b.b.'.'.|.|.|.|.}.'.b.v.v.v.k.k.k.g.g.g.g.g.k.k.k.f.m p N U >.9.9.U @.@.@.e $.<.:.G ",
"b Z - 3.0.}.}.b.b.x.b.'.}.b.b.b.b.b.b.b.b.b.x.k.v.b.b.'.'.'.'.v.v.v.k.k.k.k.k.k.l.k.f.g.k.k.q.1.U 7 = 6 p a q p V O.C $.&.G ,.%.",
"$.$.r ;.$.b.l.'.x.b.x.b.|.M.b.b.N.N.N.b.v.v.l.l.l.l.v.b.b.b.b.v.v.v.v.g.v.v.k.b.k.k.i.M.N.l.q.b V a 0 a #.U w a #.O.V O.#.e O.#.",
"n G G * C C k.z.k.x.k.x.}.}.b.M.b.b.b.b.b.v.v.v.v.v.b.b.}.}.b.v.v.v.k.k.v.b.k.l.k.b.M.k.v.i.1.r = M F #.O.F r r V #.V V N a B O.",
"n b r - Z q 3.:Xk.x.z.k.b.M.M.N.b.b.b.b.b.b.b.b.b.b.b.N.}.N.b.b.v.l.k.l.v.v.v.b.N.u.u.}.|.1.q q 3 %.#.F 2 y 2 2 O.=.M B 0 0 6 w ",
"1 H 3 3 3 b C 3.k.b.b.x.b.}.M.M.M.b.b.N.N.N.N.N.N.N.N.N.N.N.b.v.l.v.l.b.l.l.oX}.1.,.Y ,.1.u.q q u F F F 2 2 * * F F u B a 0 0 a ",
"* n c c b - - C q.x.'.x.b.}.M.b.}.}.}.}.}.}.}.}.}.'.b.b.}.b.b.v.v.b.x.oX}.b.|.k.b q 6 = a =.U #.F i i y y 2 2 i D i s s O.s w s ",
"v v 1 A %.b 3 m *.i.b.x.'.}.}.}.}.}.b.b.b.b.b.b.}.}.b.}.}.}.b.b.|.M.x.XX|.k.z.$.7 ; 0 = U a @.=.&.r y 2 2 & i H i i F y F M y 2 ",
"c H v v n Z r ; m 0.b.'.}. X X|.}.}.}.}.}.}.}.}.}.}.}.}.oXoXoXoX|..X'. Xq.@.>.p 7 p N w B U #.w M 0 i w 2 * 2 4 2 2 i 2 i F i i ",
"1 1 v 1 n 3 b r q 1.'.}. XXX.X X|.|.|.|.oXoX.X.XoX|.|.oXXXXXXXXX|.&X X'.Y 6 m 7 U a % U a U B w s w y 2 2 2 i 2 i 4 4 i 4 j 2 D "
};